<svg width="17" height="17" viewBox="0 0 17 17" fill="none" xmlns="http://www.w3.org/2000/svg">
<g clip-path="url(#clip0_10_6594)">
<path d="M16.2725 6.49589V3.66357C16.2725 2.99154 15.7257 2.44482 15.0537 2.44482H12.8397C12.1651 2.44482 11.6162 2.9937 11.6162 3.66832V3.94482C11.6162 4.11742 11.7561 4.25732 11.9287 4.25732H14.3662C14.4179 4.25732 14.46 4.29939 14.46 4.35107V6.44523H1.96127C1.40915 6.44523 0.959961 6.89442 0.959961 7.44654C0.959961 7.88907 1.24862 8.26523 1.64746 8.3972V11.1074C1.64746 12.5908 2.75509 13.8203 4.18674 14.0127L3.97737 14.222C3.85534 14.3441 3.85534 14.5419 3.97737 14.664C4.00635 14.693 4.0408 14.7161 4.07872 14.7318C4.11664 14.7475 4.15729 14.7556 4.19834 14.7555C4.23938 14.7556 4.28003 14.7475 4.31795 14.7318C4.35587 14.7161 4.39032 14.693 4.4193 14.664L5.04427 14.039H12.8756L13.5006 14.664C13.5296 14.693 13.564 14.7161 13.6019 14.7318C13.6399 14.7475 13.6805 14.7556 13.7216 14.7555C13.7626 14.7556 13.8033 14.7475 13.8412 14.7318C13.8791 14.7161 13.9135 14.693 13.9425 14.664C14.0646 14.5419 14.0646 14.3441 13.9425 14.222L13.7331 14.0127C15.1648 13.8203 16.2725 12.5908 16.2725 11.1074V8.3972C16.6713 8.26523 16.96 7.88907 16.96 7.44654C16.96 7.00401 16.6713 6.62789 16.2725 6.49589ZM14.3662 3.63232H12.2423C12.261 3.31901 12.5218 3.06982 12.8397 3.06982H15.0537C15.3811 3.06982 15.6475 3.33617 15.6475 3.66357V6.44482H15.085V4.35107C15.085 3.95476 14.7625 3.63232 14.3662 3.63232ZM3.27246 7.07023H8.64746V11.1569L8.6034 11.134C8.20012 10.9249 7.71852 10.9249 7.31452 11.1343L7.31234 11.1355C7.20273 11.1922 7.08106 11.2218 6.95763 11.2216C6.83419 11.2214 6.71262 11.1915 6.60318 11.1344C6.40451 11.0307 6.1837 10.9765 5.95959 10.9766C5.73602 10.9765 5.51575 11.0305 5.31755 11.1339C5.2076 11.1908 5.0856 11.2206 4.96178 11.2207C4.83796 11.2208 4.71591 11.1912 4.60587 11.1344L4.60459 11.1338C4.40552 11.0307 4.18463 10.9769 3.96046 10.9769C3.7363 10.9769 3.51541 11.0307 3.31634 11.1338L3.27246 11.1565V7.07023ZM1.58496 7.44651C1.58496 7.23904 1.75377 7.07023 1.96127 7.07023H2.64746V7.82282H1.96127C1.75377 7.82282 1.58496 7.65401 1.58496 7.44651ZM15.6474 11.1074C15.6475 12.3792 14.6127 13.414 13.3408 13.414H4.57909C3.30721 13.414 2.27246 12.3792 2.27246 11.1074V8.44786H2.64746V11.642C2.64746 11.7564 2.70818 11.8644 2.8059 11.9238C2.85436 11.9531 2.9095 11.9694 2.96607 11.9714C3.02265 11.9733 3.07877 11.9607 3.12912 11.9349L3.60405 11.6886C3.71401 11.6316 3.836 11.6019 3.95981 11.6018C4.08363 11.6017 4.20566 11.6312 4.31571 11.688L4.31702 11.6887C4.72037 11.8978 5.20193 11.8978 5.6043 11.6892L5.60793 11.6873C5.71703 11.6308 5.83813 11.6014 5.961 11.6016C6.08386 11.6018 6.20487 11.6315 6.3138 11.6884C6.51241 11.7919 6.73304 11.8462 6.95703 11.8464C7.18102 11.8467 7.40179 11.793 7.60065 11.6899L7.60284 11.6888C7.71299 11.6318 7.83521 11.602 7.95924 11.602C8.08328 11.602 8.2055 11.6318 8.31565 11.6888L8.79065 11.9351C8.83756 11.9594 8.88962 11.972 8.94243 11.9719C9.00285 11.972 9.06213 11.9556 9.11384 11.9243C9.16213 11.8947 9.20205 11.8533 9.2298 11.804C9.25756 11.7546 9.27222 11.699 9.2724 11.6424V8.44786H15.6474V11.1074ZM15.9586 7.82286H9.27246V7.07026H15.9586C16.1661 7.07026 16.335 7.23907 16.335 7.44657C16.335 7.65404 16.1661 7.82286 15.9586 7.82286Z" fill="black"/>
<path d="M10.6667 12.1385H10.6494C10.4768 12.1385 10.3369 12.2784 10.3369 12.451C10.3369 12.6236 10.4768 12.7635 10.6494 12.7635H10.6667C10.8393 12.7635 10.9792 12.6236 10.9792 12.451C10.9792 12.2784 10.8393 12.1385 10.6667 12.1385ZM14.6189 10.025C14.4463 10.025 14.3064 10.1649 14.3064 10.3375C14.3064 11.3305 13.4985 12.1385 12.5054 12.1385H11.6319C11.4593 12.1385 11.3194 12.2784 11.3194 12.451C11.3194 12.6236 11.4593 12.7635 11.6319 12.7635H12.5054C13.8431 12.7635 14.9314 11.6752 14.9314 10.3375C14.9314 10.1649 14.7915 10.025 14.6189 10.025ZM11.7118 5.40248C11.5486 5.3463 11.3708 5.43317 11.3146 5.59642L11.2639 5.74417C11.2078 5.90739 11.2946 6.08517 11.4578 6.1413C11.4905 6.15259 11.5248 6.15835 11.5594 6.15836C11.6891 6.15836 11.8104 6.07692 11.8549 5.94736L11.9057 5.79961C11.9618 5.63639 11.875 5.45861 11.7118 5.40248ZM12.0674 4.36814C11.9041 4.31202 11.7264 4.39886 11.6703 4.56208L11.6195 4.70986C11.5634 4.87308 11.6502 5.05086 11.8134 5.10698C11.8461 5.11826 11.8804 5.12402 11.915 5.12405C12.0448 5.12405 12.166 5.04261 12.2105 4.91305L12.2613 4.76527C12.3174 4.60205 12.2306 4.42423 12.0674 4.36814ZM12.6631 5.45161C12.4905 5.45161 12.3506 5.59152 12.3506 5.76411V5.92036C12.3506 6.09295 12.4905 6.23286 12.6631 6.23286C12.8357 6.23286 12.9756 6.09295 12.9756 5.92036V5.76411C12.9756 5.59152 12.8357 5.45161 12.6631 5.45161ZM12.6631 4.35786C12.4905 4.35786 12.3506 4.49777 12.3506 4.67036V4.82661C12.3506 4.9992 12.4905 5.13911 12.6631 5.13911C12.8357 5.13911 12.9756 4.9992 12.9756 4.82661V4.67036C12.9756 4.49777 12.8357 4.35786 12.6631 4.35786ZM14.0675 5.74417L14.0167 5.59642C13.9606 5.4332 13.7828 5.3463 13.6196 5.40248C13.4564 5.45861 13.3696 5.63639 13.4257 5.79961L13.4765 5.94736C13.521 6.07692 13.6422 6.15836 13.772 6.15836C13.8066 6.15834 13.8409 6.15257 13.8736 6.1413C14.0368 6.0852 14.1236 5.90739 14.0675 5.74417ZM13.7119 4.70986L13.6611 4.56208C13.605 4.39886 13.4273 4.31208 13.264 4.36814C13.1008 4.42423 13.014 4.60205 13.0701 4.76527L13.1209 4.91305C13.142 4.97461 13.1819 5.02802 13.2348 5.06585C13.2878 5.10367 13.3513 5.12402 13.4164 5.12405C13.451 5.12403 13.4853 5.11826 13.518 5.10698C13.6812 5.05089 13.768 4.87308 13.7119 4.70986Z" fill="black"/>
</g>
<defs>
<clipPath id="clip0_10_6594">
<rect width="16" height="16" fill="white" transform="translate(0.959961 0.600098)"/>
</clipPath>
</defs>
</svg>
