<svg width="35" height="36" viewBox="0 0 35 36" fill="none" xmlns="http://www.w3.org/2000/svg">
<path d="M17.5 33.7209L8.27314 22.8392C8.14493 22.6758 8.01805 22.5114 7.89251 22.3459C6.3164 20.2698 5.46494 17.7338 5.46876 15.1272C5.46876 11.9363 6.73634 8.87612 8.99263 6.61982C11.2489 4.36352 14.3091 3.09595 17.5 3.09595C20.6909 3.09595 23.7511 4.36352 26.0074 6.61982C28.2637 8.87612 29.5313 11.9363 29.5313 15.1272C29.5351 17.7327 28.684 20.2674 27.1086 22.3427L27.1075 22.3459C27.1075 22.3459 26.7794 22.7769 26.7302 22.8349L17.5 33.7209ZM9.63814 21.028C9.64033 21.028 9.89408 21.3649 9.95204 21.437L17.5 30.3391L25.0578 21.425C25.1059 21.3649 25.3619 21.0258 25.363 21.0247C26.6505 19.3284 27.3463 17.2568 27.3438 15.1272C27.3438 12.5165 26.3067 10.0127 24.4606 8.16661C22.6145 6.32055 20.1107 5.28345 17.5 5.28345C14.8893 5.28345 12.3855 6.32055 10.5394 8.16661C8.69337 10.0127 7.65626 12.5165 7.65626 15.1272C7.65397 17.2581 8.34946 19.3309 9.63814 21.028Z" fill="#454545"/>
<path d="M17.5 20.596C16.4184 20.596 15.3611 20.2752 14.4617 19.6743C13.5624 19.0734 12.8615 18.2193 12.4475 17.22C12.0336 16.2207 11.9253 15.1211 12.1363 14.0603C12.3473 12.9995 12.8682 12.025 13.633 11.2602C14.3978 10.4954 15.3723 9.97454 16.4331 9.76353C17.4939 9.55252 18.5935 9.66082 19.5928 10.0747C20.5921 10.4887 21.4462 11.1896 22.0471 12.0889C22.648 12.9883 22.9688 14.0456 22.9688 15.1272C22.967 16.5771 22.3903 17.9671 21.3651 18.9923C20.3399 20.0175 18.9499 20.5942 17.5 20.596ZM17.5 11.846C16.851 11.846 16.2166 12.0384 15.677 12.3989C15.1374 12.7595 14.7169 13.272 14.4685 13.8715C14.2202 14.4711 14.1552 15.1308 14.2818 15.7673C14.4084 16.4038 14.7209 16.9885 15.1798 17.4474C15.6387 17.9063 16.2234 18.2188 16.8599 18.3454C17.4964 18.472 18.1561 18.407 18.7557 18.1587C19.3553 17.9103 19.8677 17.4898 20.2283 16.9502C20.5888 16.4106 20.7813 15.7762 20.7813 15.1272C20.7804 14.2572 20.4344 13.4231 19.8192 12.808C19.2041 12.1928 18.37 11.8468 17.5 11.846Z" fill="#454545"/>
</svg>
