<svg width="29" height="30" viewBox="0 0 29 30" fill="none" xmlns="http://www.w3.org/2000/svg">
<path fill-rule="evenodd" clip-rule="evenodd" d="M24.8509 5.708C24.9407 5.61502 25.012 5.50464 25.0607 5.38316C25.1093 5.26168 25.1343 5.13148 25.1343 5C25.1343 4.86851 25.1093 4.73831 25.0607 4.61683C25.012 4.49535 24.9407 4.38497 24.8509 4.292C24.761 4.19902 24.6543 4.12527 24.5368 4.07495C24.4194 4.02463 24.2936 3.99873 24.1665 3.99873C24.0393 3.99873 23.9135 4.02463 23.7961 4.07495C23.6786 4.12527 23.5719 4.19902 23.4821 4.292L14.4998 13.586L5.51752 4.292C5.42765 4.19902 5.32095 4.12527 5.20352 4.07495C5.08609 4.02463 4.96023 3.99873 4.83312 3.99873C4.70602 3.99873 4.58016 4.02463 4.46273 4.07495C4.3453 4.12527 4.2386 4.19902 4.14872 4.292C4.05885 4.38497 3.98755 4.49535 3.93891 4.61683C3.89027 4.73831 3.86523 4.86851 3.86523 5C3.86523 5.13148 3.89027 5.26168 3.93891 5.38316C3.98755 5.50464 4.05885 5.61502 4.14872 5.708L13.1329 15L4.14872 24.292C3.96721 24.4798 3.86523 24.7344 3.86523 25C3.86523 25.2655 3.96721 25.5202 4.14872 25.708C4.33024 25.8958 4.57642 26.0013 4.83312 26.0013C5.08982 26.0013 5.33601 25.8958 5.51752 25.708L14.4998 16.414L23.4821 25.708C23.6636 25.8958 23.9098 26.0013 24.1665 26.0013C24.4232 26.0013 24.6693 25.8958 24.8509 25.708C25.0324 25.5202 25.1343 25.2655 25.1343 25C25.1343 24.7344 25.0324 24.4798 24.8509 24.292L15.8667 15L24.8509 5.708Z" fill="black"/>
</svg>
