<svg width="944" height="1" viewBox="0 0 944 1" fill="none" xmlns="http://www.w3.org/2000/svg">
<mask id="path-1-inside-1_83_650" fill="white">
<path d="M290.68 0H944L653.32 1H0L290.68 0Z"/>
</mask>
<path d="M290.68 0V-1.00001L290.677 -0.999994L290.68 0ZM944 0L944.003 0.999994L944 -1V0ZM653.32 1V2.00001L653.323 1.99999L653.32 1ZM0 1L-0.00344019 5.91747e-06L0 2V1ZM290.68 1H944V-1H290.68V1ZM943.997 -0.999994L653.317 5.91747e-06L653.323 1.99999L944.003 0.999994L943.997 -0.999994ZM653.32 0H0V2H653.32V0ZM0.00344019 1.99999L290.683 0.999994L290.677 -0.999994L-0.00344019 5.91747e-06L0.00344019 1.99999Z" fill="#DDDDDD" mask="url(#path-1-inside-1_83_650)"/>
</svg>
