<svg width="16" height="17" viewBox="0 0 16 17" fill="none" xmlns="http://www.w3.org/2000/svg">
<g clip-path="url(#clip0_72_2936)">
<path fill-rule="evenodd" clip-rule="evenodd" d="M7.55018 1.29001L5.48518 5.73001L0.55518 6.36501C0.459803 6.37693 0.369882 6.41609 0.296187 6.4778C0.222492 6.53951 0.168145 6.62115 0.139655 6.71295C0.111166 6.80475 0.10974 6.90282 0.13555 6.99541C0.161359 7.088 0.21331 7.17119 0.28518 7.23501L3.93518 10.52L2.95018 15.445C2.93163 15.5392 2.94057 15.6367 2.97593 15.7259C3.01129 15.8151 3.07158 15.8923 3.14961 15.9482C3.22763 16.004 3.32009 16.0363 3.41595 16.0411C3.5118 16.0458 3.607 16.0229 3.69018 15.975L8.00018 13.475L12.3152 15.975C12.3984 16.0229 12.4936 16.0458 12.5894 16.0411C12.6853 16.0363 12.7777 16.004 12.8558 15.9482C12.9338 15.8923 12.9941 15.8151 13.0294 15.7259C13.0648 15.6367 13.0737 15.5392 13.0552 15.445L12.0702 10.52L15.7202 7.23501C15.7906 7.17058 15.8411 7.08734 15.8658 6.99513C15.8904 6.90291 15.8881 6.80557 15.8592 6.7146C15.8303 6.62364 15.7759 6.54285 15.7026 6.48179C15.6292 6.42073 15.5399 6.38194 15.4452 6.37001L10.5152 5.73001L8.45518 1.29001C8.41541 1.20272 8.35136 1.12871 8.27069 1.07681C8.19001 1.02491 8.09611 0.997314 8.00018 0.997314C7.90425 0.997314 7.81035 1.02491 7.72967 1.07681C7.649 1.12871 7.58495 1.20272 7.54518 1.29001H7.55018Z" fill="#222222"/>
</g>
<defs>
<clipPath id="clip0_72_2936">
<rect width="16" height="16" fill="white" transform="translate(0 0.5)"/>
</clipPath>
</defs>
</svg>
