<svg width="16" height="17" viewBox="0 0 16 17" fill="none" xmlns="http://www.w3.org/2000/svg">
<path d="M13.75 6.4751H13.5V4.4751C13.4992 3.7851 12.94 3.22591 12.25 3.2251H3.75C3.06 3.22591 2.50081 3.7851 2.5 4.4751V6.4751H2.25C1.008 6.4766 0.0015 7.4831 0 8.7251V12.2251H0.5V13.9751H1.75V12.2251H14.25V13.9751H15.5V12.2251H16V8.7251C15.9985 7.4831 14.992 6.4766 13.75 6.4751ZM3 4.4751C3 4.06088 3.33578 3.7251 3.75 3.7251H12.25C12.6642 3.7251 13 4.06088 13 4.4751V6.4751H12.25V5.4751C12.25 5.06088 11.9142 4.7251 11.5 4.7251H9.25C8.83578 4.7251 8.5 5.06088 8.5 5.4751V6.4751H7.5V5.4751C7.5 5.06088 7.16422 4.7251 6.75 4.7251H4.5C4.08578 4.7251 3.75 5.06088 3.75 5.4751V6.4751H3V4.4751ZM11.75 5.4751V6.4751H9V5.4751C9 5.40879 9.02634 5.3452 9.07322 5.29832C9.12011 5.25144 9.1837 5.2251 9.25 5.2251H11.5C11.5663 5.2251 11.6299 5.25144 11.6768 5.29832C11.7237 5.3452 11.75 5.40879 11.75 5.4751ZM7 5.4751V6.4751H4.25V5.4751C4.25 5.40879 4.27634 5.3452 4.32322 5.29832C4.37011 5.25144 4.4337 5.2251 4.5 5.2251H6.75C6.8163 5.2251 6.87989 5.25144 6.92678 5.29832C6.97366 5.3452 7 5.40879 7 5.4751ZM1.25 13.4751H1V12.2251H1.25V13.4751ZM15 13.4751H14.75V12.2251H15V13.4751ZM15.5 11.7251H0.5V10.4751H15.5V11.7251ZM15.5 9.9751H0.5V8.7251C0.501094 7.75907 1.28397 6.97619 2.25 6.9751H13.75C14.716 6.97619 15.4989 7.75907 15.5 8.7251V9.9751Z" fill="black"/>
</svg>
