<svg width="17" height="16" viewBox="0 0 17 16" fill="none" xmlns="http://www.w3.org/2000/svg">
<path d="M8.20996 14C11.71 11.635 15.21 9.00002 15.21 5.50002C15.2113 5.04002 15.1217 4.5843 14.9462 4.15907C14.7708 3.73383 14.513 3.34747 14.1878 3.0222C13.8625 2.69694 13.4762 2.43918 13.0509 2.26375C12.6257 2.08833 12.17 1.9987 11.71 2.00002C10.81 2.00002 9.91996 2.34002 9.23496 3.02502L8.20996 4.05002L7.18496 3.02502C6.86063 2.69878 6.47499 2.43989 6.05024 2.26322C5.62548 2.08655 5.16999 1.99561 4.70996 1.99561C4.24994 1.99561 3.79445 2.08655 3.36969 2.26322C2.94494 2.43989 2.5593 2.69878 2.23496 3.02502C1.90952 3.34972 1.65144 3.73552 1.47554 4.16026C1.29964 4.585 1.20938 5.0403 1.20996 5.50002C1.20996 9.00002 4.70996 11.635 8.20996 14Z" stroke="#222222"/>
</svg>
