<svg width="25" height="24" viewBox="0 0 25 24" fill="none" xmlns="http://www.w3.org/2000/svg">
<g clip-path="url(#clip0_436_221)">
<path d="M12.3332 15.2475C13.0632 15.2475 13.7633 15.5375 14.2795 16.0537C14.7957 16.5699 15.0857 17.27 15.0857 18C15.0857 18.73 14.7957 19.4301 14.2795 19.9463C13.7633 20.4625 13.0632 20.7525 12.3332 20.7525C11.6032 20.7525 10.9031 20.4625 10.3869 19.9463C9.87068 19.4301 9.58068 18.73 9.58068 18C9.58068 17.27 9.87068 16.5699 10.3869 16.0537C10.9031 15.5375 11.6032 15.2475 12.3332 15.2475ZM12.3332 16.7475C12.001 16.7475 11.6824 16.8795 11.4475 17.1143C11.2126 17.3492 11.0807 17.6678 11.0807 18C11.0807 18.3322 11.2126 18.6508 11.4475 18.8856C11.6824 19.1205 12.001 19.2525 12.3332 19.2525C12.6654 19.2525 12.9839 19.1205 13.2188 18.8856C13.4537 18.6508 13.5857 18.3322 13.5857 18C13.5857 17.6678 13.4537 17.3492 13.2188 17.1143C12.9839 16.8795 12.6654 16.7475 12.3332 16.7475ZM12.3332 11.25C13.5843 11.2503 14.8107 11.5983 15.8755 12.2552C16.9403 12.9121 17.8016 13.852 18.3632 14.97L17.2307 16.1025C16.8488 15.1137 16.1766 14.2636 15.3025 13.6641C14.4283 13.0646 13.3932 12.7438 12.3332 12.7438C11.2732 12.7438 10.2381 13.0646 9.36391 13.6641C8.48975 14.2636 7.81753 15.1137 7.43568 16.1025L6.30318 14.97C6.86479 13.852 7.72607 12.9121 8.79087 12.2552C9.85566 11.5983 11.0821 11.2503 12.3332 11.25ZM12.3332 7.2525C16.0682 7.2525 19.3607 9.1575 21.2882 12.0525L20.2007 13.1325C19.3721 11.7911 18.2143 10.6839 16.8373 9.91595C15.4603 9.14802 13.9098 8.74491 12.3332 8.74491C10.7565 8.74491 9.20606 9.14802 7.82906 9.91595C6.45206 10.6839 5.29427 11.7911 4.46568 13.1325L3.37818 12.045C4.35871 10.568 5.68962 9.35663 7.25218 8.51908C8.81473 7.68153 10.5603 7.24382 12.3332 7.245V7.2525ZM12.3332 3.2475C17.1707 3.2475 21.4682 5.5725 24.1532 9.1725L23.0807 10.2525C21.8557 8.54606 20.242 7.15584 18.3731 6.19686C16.5042 5.23787 14.4338 4.73769 12.3332 4.73769C10.2326 4.73769 8.16219 5.23787 6.29328 6.19686C4.42436 7.15584 2.81066 8.54606 1.58568 10.2525L0.513184 9.18C3.19818 5.58 7.48818 3.255 12.3332 3.255V3.2475Z" fill="#222222"/>
</g>
<defs>
<clipPath id="clip0_436_221">
<rect width="24" height="24" fill="white" transform="translate(0.333008)"/>
</clipPath>
</defs>
</svg>
