<svg width="24" height="24" viewBox="0 0 24 24" fill="none" xmlns="http://www.w3.org/2000/svg">
<path d="M17.2432 2.25001C17.6222 2.24894 17.9877 2.39144 18.266 2.64885C18.5442 2.90626 18.7147 3.25949 18.7432 3.63751V4.89001L22.4932 3.39001V12.36L18.7432 10.86V12C18.7442 12.3791 18.6017 12.7445 18.3443 13.0228C18.0869 13.3011 17.7337 13.4716 17.3557 13.5H12.6682C12.5197 14.2315 12.1563 14.902 11.6245 15.4258C11.0928 15.9495 10.4168 16.3027 9.68317 16.44C9.52798 17.2734 9.09499 18.0296 8.45483 18.5853C7.81467 19.1411 7.0051 19.4635 6.15817 19.5H2.99317V22.5H1.49317V15H2.99317V18H5.99317C6.47585 17.9998 6.94568 17.8444 7.33328 17.5568C7.72088 17.2691 8.00569 16.8644 8.14567 16.4025C7.44588 16.2403 6.80739 15.8806 6.30614 15.366C5.80489 14.8515 5.46197 14.2038 5.31817 13.5H2.99317C2.61409 13.5011 2.24867 13.3586 1.97038 13.1012C1.6921 12.8437 1.5216 12.4905 1.49317 12.1125V3.75001C1.4921 3.37093 1.6346 3.0055 1.89201 2.72722C2.14943 2.44894 2.50266 2.27844 2.88067 2.25001H2.99317H17.2432ZM8.99317 10.5C8.39643 10.5 7.82414 10.7371 7.40218 11.159C6.98022 11.581 6.74317 12.1533 6.74317 12.75C6.74317 13.3467 6.98022 13.919 7.40218 14.341C7.82414 14.763 8.39643 15 8.99317 15C9.58991 15 10.1622 14.763 10.5842 14.341C11.0061 13.919 11.2432 13.3467 11.2432 12.75C11.2432 12.1533 11.0061 11.581 10.5842 11.159C10.1622 10.7371 9.58991 10.5 8.99317 10.5ZM17.2432 3.75001H2.99317V12H5.31817C5.49031 11.1523 5.95022 10.3901 6.61998 9.84272C7.28974 9.29529 8.12815 8.99625 8.99317 8.99625C9.85819 8.99625 10.6966 9.29529 11.3664 9.84272C12.0361 10.3901 12.496 11.1523 12.6682 12H17.2432V3.75001ZM20.9932 5.61001L18.7432 6.51001V9.24001L20.9932 10.14V5.61001ZM5.24317 5.25001C5.44208 5.25001 5.63285 5.32902 5.7735 5.46968C5.91415 5.61033 5.99317 5.80109 5.99317 6.00001C5.99317 6.19892 5.91415 6.38968 5.7735 6.53034C5.63285 6.67099 5.44208 6.75001 5.24317 6.75001C5.04426 6.75001 4.85349 6.67099 4.71284 6.53034C4.57219 6.38968 4.49317 6.19892 4.49317 6.00001C4.49317 5.80109 4.57219 5.61033 4.71284 5.46968C4.85349 5.32902 5.04426 5.25001 5.24317 5.25001Z" fill="#222222"/>
</svg>
