<svg width="25" height="24" viewBox="0 0 25 24" fill="none" xmlns="http://www.w3.org/2000/svg">
<path d="M7.45801 1.5C8.0933 1.49898 8.71598 1.67729 9.25443 2.01442C9.79289 2.35155 10.2253 2.83381 10.5018 3.40574C10.7784 3.97767 10.8879 4.61605 10.8178 5.24746C10.7477 5.87887 10.5008 6.47767 10.1055 6.975C10.5555 7.1325 10.983 7.38 11.3505 7.71L11.493 7.8525L13.383 9.75H23.583V11.25H22.083V21.75C22.0841 22.1291 21.9416 22.4945 21.6842 22.7728C21.4268 23.0511 21.0735 23.2216 20.6955 23.25H4.08301C3.70393 23.2511 3.3385 23.1086 3.06022 22.8512C2.78194 22.5937 2.61144 22.2405 2.58301 21.8625V11.25H1.08301V9.75H2.65801C2.78098 9.15351 3.04738 8.59595 3.43418 8.12552C3.82098 7.65509 4.31653 7.28594 4.87801 7.05C4.46362 6.55832 4.19832 5.9585 4.11332 5.32113C4.02832 4.68376 4.12717 4.03538 4.39823 3.45229C4.66928 2.8692 5.10127 2.37568 5.64334 2.02982C6.18541 1.68395 6.815 1.50013 7.45801 1.5ZM12.768 11.25H4.08301V21.75H20.583V11.25H14.8905L17.3655 13.725L16.3005 14.775L12.768 11.25ZM7.45801 3C7.02452 2.99646 6.60319 3.14324 6.26573 3.41536C5.92828 3.68748 5.69554 4.06813 5.60712 4.49252C5.5187 4.91692 5.58008 5.35884 5.78079 5.74308C5.98151 6.12732 6.30917 6.43014 6.70801 6.6V8.25H6.33301C5.86752 8.24976 5.41341 8.39389 5.03327 8.66254C4.65313 8.93119 4.36567 9.31113 4.21051 9.75H11.268L10.428 8.91C10.0427 8.52548 9.53113 8.29365 8.98801 8.2575L8.83801 8.25H8.20801V6.6C8.60685 6.43014 8.93451 6.12732 9.13522 5.74308C9.33594 5.35884 9.39731 4.91692 9.3089 4.49252C9.22048 4.06813 8.98774 3.68748 8.65028 3.41536C8.31282 3.14324 7.8915 2.99646 7.45801 3ZM19.0755 0.75C18.9717 1.88782 18.4974 2.96016 17.7255 3.8025L17.388 4.1475C16.3397 5.27026 15.7071 6.71796 15.5955 8.25H14.0955C14.2137 6.23595 15.0678 4.33553 16.4955 2.91C17.0802 2.32801 17.4548 1.56817 17.5605 0.75H19.0755ZM20.5755 0.75H22.0755C21.958 2.76422 21.1038 4.66487 19.6755 6.09C19.094 6.67338 18.7222 7.43294 18.618 8.25H17.118C17.224 7.11495 17.698 6.04565 18.468 5.205L18.798 4.8525C19.8414 3.72797 20.4686 2.2803 20.5755 0.75Z" fill="#222222"/>
</svg>
