<svg width="17" height="16" viewBox="0 0 17 16" fill="none" xmlns="http://www.w3.org/2000/svg">
<path d="M14.3799 3H8.87988V2C8.87988 1.73478 8.77453 1.48043 8.58699 1.29289C8.39945 1.10536 8.1451 1 7.87988 1H1.87988V15H2.87988V9H7.87988V10C7.87988 10.2652 7.98524 10.5196 8.17278 10.7071C8.36031 10.8946 8.61467 11 8.87988 11H14.4399C14.5123 10.9914 14.582 10.9671 14.644 10.9287C14.706 10.8903 14.7589 10.8388 14.7989 10.7778C14.839 10.7168 14.8652 10.6478 14.8757 10.5757C14.8862 10.5035 14.8808 10.4299 14.8599 10.36L13.8999 7L14.8599 3.64C14.8816 3.56548 14.8857 3.48693 14.8718 3.41056C14.8579 3.33419 14.8265 3.2621 14.7799 3.2C14.7333 3.1379 14.6729 3.0875 14.6035 3.05279C14.5341 3.01807 14.4575 3 14.3799 3Z" fill="#717171"/>
</svg>
