<svg width="25" height="24" viewBox="0 0 25 24" fill="none" xmlns="http://www.w3.org/2000/svg">
<path d="M21.333 1.5C21.7308 1.5 22.1124 1.65804 22.3937 1.93934C22.675 2.22064 22.833 2.60218 22.833 3V21C22.833 21.3978 22.675 21.7794 22.3937 22.0607C22.1124 22.342 21.7308 22.5 21.333 22.5H3.33301C2.93518 22.5 2.55365 22.342 2.27235 22.0607C1.99104 21.7794 1.83301 21.3978 1.83301 21V3C1.83301 2.60218 1.99104 2.22064 2.27235 1.93934C2.55365 1.65804 2.93518 1.5 3.33301 1.5H21.333ZM21.333 3H3.33301V14.625H3.47551C3.75301 14.595 4.01551 14.4975 4.22551 14.34L4.33051 14.2575C4.88138 13.7661 5.5948 13.4962 6.33301 13.5C7.07551 13.5 7.79551 13.7625 8.33551 14.25C8.59801 14.4975 8.95801 14.625 9.33301 14.625C9.70801 14.625 10.068 14.4975 10.3305 14.25C10.8821 13.7607 11.5957 13.4934 12.333 13.5C13.0755 13.5 13.7955 13.7625 14.3355 14.25C14.598 14.4975 14.958 14.625 15.333 14.625C15.708 14.625 16.068 14.4975 16.3305 14.25C16.8825 13.7613 17.5958 13.4941 18.333 13.5C19.0755 13.5 19.788 13.7625 20.3355 14.25C20.598 14.4975 20.958 14.625 21.333 14.625V16.125H21.1605C20.4827 16.0914 19.8369 15.8267 19.3305 15.375C19.0559 15.1309 18.7005 14.9973 18.333 15C17.958 15 17.598 15.1275 17.3355 15.375C16.7835 15.8637 16.0702 16.1309 15.333 16.125C14.5958 16.1309 13.8825 15.8637 13.3305 15.375C13.0559 15.1309 12.7005 14.9973 12.333 15C11.958 15 11.598 15.1275 11.3355 15.375C10.7835 15.8637 10.0702 16.1309 9.33301 16.125C8.59579 16.1309 7.88249 15.8637 7.33051 15.375C7.05586 15.1309 6.70045 14.9973 6.33301 15C5.95801 15 5.59801 15.1275 5.33551 15.375C4.78353 15.8637 4.07022 16.1309 3.33301 16.125V18.375H3.47551C3.75301 18.345 4.01551 18.2475 4.22551 18.09L4.33051 18.0075C4.88138 17.5161 5.5948 17.2462 6.33301 17.25C7.07551 17.25 7.79551 17.5125 8.33551 18C8.59801 18.2475 8.95801 18.375 9.33301 18.375C9.70801 18.375 10.068 18.2475 10.3305 18C10.8821 17.5107 11.5957 17.2434 12.333 17.25C13.0755 17.25 13.7955 17.5125 14.3355 18C14.598 18.2475 14.958 18.375 15.333 18.375C15.708 18.375 16.068 18.2475 16.3305 18C16.8825 17.5113 17.5958 17.2441 18.333 17.25C19.0755 17.25 19.788 17.5125 20.3355 18C20.598 18.2475 20.958 18.375 21.333 18.375V19.875H21.1605C20.4827 19.8414 19.8369 19.5767 19.3305 19.125C19.0559 18.8809 18.7005 18.7473 18.333 18.75C17.958 18.75 17.598 18.8775 17.3355 19.125C16.7835 19.6137 16.0702 19.8809 15.333 19.875C14.5958 19.8809 13.8825 19.6137 13.3305 19.125C13.0559 18.8809 12.7005 18.7473 12.333 18.75C11.958 18.75 11.598 18.8775 11.3355 19.125C10.7835 19.6137 10.0702 19.8809 9.33301 19.875C8.59579 19.8809 7.88249 19.6137 7.33051 19.125C7.05586 18.8809 6.70045 18.7473 6.33301 18.75C5.95801 18.75 5.59801 18.8775 5.33551 19.125C4.78353 19.6137 4.07022 19.8809 3.33301 19.875V21H21.333V3ZM16.833 5.25C17.4297 5.25 18.002 5.48705 18.424 5.90901C18.846 6.33097 19.083 6.90326 19.083 7.5C19.083 8.09674 18.846 8.66903 18.424 9.09099C18.002 9.51295 17.4297 9.75 16.833 9.75C16.2363 9.75 15.664 9.51295 15.242 9.09099C14.8201 8.66903 14.583 8.09674 14.583 7.5C14.583 6.90326 14.8201 6.33097 15.242 5.90901C15.664 5.48705 16.2363 5.25 16.833 5.25ZM16.833 6.75C16.6341 6.75 16.4433 6.82902 16.3027 6.96967C16.162 7.11032 16.083 7.30109 16.083 7.5C16.083 7.69891 16.162 7.88968 16.3027 8.03033C16.4433 8.17098 16.6341 8.25 16.833 8.25C17.0319 8.25 17.2227 8.17098 17.3633 8.03033C17.504 7.88968 17.583 7.69891 17.583 7.5C17.583 7.30109 17.504 7.11032 17.3633 6.96967C17.2227 6.82902 17.0319 6.75 16.833 6.75Z" fill="#222222"/>
</svg>
