<svg width="24" height="24" viewBox="0 0 24 24" fill="none" xmlns="http://www.w3.org/2000/svg">
<path d="M19.7107 1.5C20.2515 1.50189 20.7735 1.6985 21.1812 2.05385C21.5889 2.4092 21.855 2.89951 21.9307 3.435C22.3057 6.105 22.4932 8.9625 22.4932 12C22.4932 15.0375 22.3057 17.895 21.9307 20.565C21.8573 21.0782 21.609 21.5502 21.2277 21.9014C20.8464 22.2526 20.3556 22.4614 19.8382 22.4925L19.7107 22.5H4.26816C3.72735 22.4981 3.20531 22.3015 2.79762 21.9461C2.38993 21.5908 2.12388 21.1005 2.04816 20.565C1.68066 17.895 1.49316 15.0375 1.49316 12C1.49316 8.9625 1.68066 6.105 2.05566 3.435C2.12903 2.92184 2.37734 2.44976 2.75861 2.09856C3.13988 1.74735 3.63072 1.53857 4.14816 1.5075L4.26816 1.5H19.7107ZM19.7107 3H4.28316C4.10117 2.99821 3.92474 3.06265 3.78675 3.18132C3.64876 3.3 3.55863 3.46479 3.53316 3.645C3.16028 6.41417 2.97985 9.20587 2.99316 12C2.99316 14.97 3.17316 17.7525 3.54066 20.355C3.56421 20.5182 3.6409 20.6691 3.75885 20.7844C3.8768 20.8996 4.02945 20.9728 4.19316 20.9925L4.27566 21H19.7032C19.8852 21.0018 20.0616 20.9373 20.1996 20.8187C20.3376 20.7 20.4277 20.5352 20.4532 20.355C20.8132 17.7525 20.9932 14.97 20.9932 12C20.9932 9.03 20.8132 6.2475 20.4457 3.645C20.4221 3.48179 20.3454 3.33088 20.2275 3.21564C20.1095 3.1004 19.9569 3.02725 19.7932 3.0075L19.7107 3ZM11.9932 5.25C13.7834 5.25 15.5003 5.96116 16.7661 7.22703C18.032 8.4929 18.7432 10.2098 18.7432 12C18.7432 13.7902 18.032 15.5071 16.7661 16.773C15.5003 18.0388 13.7834 18.75 11.9932 18.75C10.203 18.75 8.48606 18.0388 7.22019 16.773C5.95432 15.5071 5.24316 13.7902 5.24316 12C5.24316 10.2098 5.95432 8.4929 7.22019 7.22703C8.48606 5.96116 10.203 5.25 11.9932 5.25ZM11.9932 6.75C10.6008 6.75 9.26542 7.30312 8.28085 8.28769C7.29629 9.27226 6.74316 10.6076 6.74316 12C6.74316 13.3924 7.29629 14.7277 8.28085 15.7123C9.26542 16.6969 10.6008 17.25 11.9932 17.25C13.3856 17.25 14.7209 16.6969 15.7055 15.7123C16.69 14.7277 17.2432 13.3924 17.2432 12C17.2432 10.6076 16.69 9.27226 15.7055 8.28769C14.7209 7.30312 13.3856 6.75 11.9932 6.75ZM8.39316 10.935C9.41316 11.085 10.3732 11.535 11.1532 12.2475L11.4982 12.585C12.4611 13.4816 13.6658 14.0761 14.9632 14.295C14.5685 14.8052 14.0494 15.2055 13.4557 15.4575C12.2516 15.0504 11.158 14.3702 10.2607 13.47C9.71828 12.9276 9.02147 12.5661 8.26566 12.435C8.19918 11.9317 8.24268 11.4199 8.39316 10.935ZM10.7107 8.475C11.7157 8.8875 12.6457 9.495 13.4407 10.29C14.0443 10.8978 14.8388 11.2792 15.6907 11.37C15.7746 11.8684 15.7568 12.3787 15.6382 12.87C14.49 12.7721 13.4063 12.2975 12.5557 11.52L12.2032 11.1825C11.3451 10.3829 10.2928 9.82183 9.15066 9.555C9.56949 9.06723 10.1067 8.69532 10.7107 8.475ZM5.24316 4.5C5.44208 4.5 5.63284 4.57902 5.77349 4.71967C5.91415 4.86032 5.99316 5.05109 5.99316 5.25C5.99316 5.44891 5.91415 5.63968 5.77349 5.78033C5.63284 5.92098 5.44208 6 5.24316 6C5.04425 6 4.85349 5.92098 4.71283 5.78033C4.57218 5.63968 4.49316 5.44891 4.49316 5.25C4.49316 5.05109 4.57218 4.86032 4.71283 4.71967C4.85349 4.57902 5.04425 4.5 5.24316 4.5Z" fill="#222222"/>
</svg>
