<svg width="115" height="115" viewBox="0 0 115 115" fill="none" xmlns="http://www.w3.org/2000/svg">
<g filter="url(#filter0_d_52_78)">
<rect x="19" y="7" width="77" height="77" rx="10" fill="white"/>
</g>
<g clip-path="url(#clip0_52_78)">
<path d="M46.25 26.75C51.2937 26.75 55.67 29.5944 57.8694 33.7644C60.0763 30.6556 63.7062 28.625 67.8125 28.625H74.375V33.3125C74.375 40.0437 68.9188 45.5 62.1875 45.5H59.375V47.375H68.75V60.5C68.75 62.5719 67.0719 64.25 65 64.25H50C47.9281 64.25 46.25 62.5719 46.25 60.5V47.375H55.625V43.625H51.875C44.6263 43.625 38.75 37.7487 38.75 30.5V26.75H46.25ZM65 51.125H50V60.5H65V51.125ZM70.625 32.375H67.8125C63.1531 32.375 59.375 36.1531 59.375 40.8125V41.75H62.1875C66.8469 41.75 70.625 37.9719 70.625 33.3125V32.375ZM46.25 30.5H42.5C42.5 35.6769 46.6981 39.875 51.875 39.875H55.625C55.625 34.6981 51.4269 30.5 46.25 30.5Z" fill="#2654CA"/>
</g>
<defs>
<filter id="filter0_d_52_78" x="0" y="0" width="115" height="115" filterUnits="userSpaceOnUse" color-interpolation-filters="sRGB">
<feFlood flood-opacity="0" result="BackgroundImageFix"/>
<feColorMatrix in="SourceAlpha" type="matrix" values="0 0 0 0 0 0 0 0 0 0 0 0 0 0 0 0 0 0 127 0" result="hardAlpha"/>
<feOffset dy="12"/>
<feGaussianBlur stdDeviation="9.5"/>
<feComposite in2="hardAlpha" operator="out"/>
<feColorMatrix type="matrix" values="0 0 0 0 0 0 0 0 0 0 0 0 0 0 0 0 0 0 0.15 0"/>
<feBlend mode="normal" in2="BackgroundImageFix" result="effect1_dropShadow_52_78"/>
<feBlend mode="normal" in="SourceGraphic" in2="effect1_dropShadow_52_78" result="shape"/>
</filter>
<clipPath id="clip0_52_78">
<rect width="45" height="45" fill="white" transform="translate(35 23)"/>
</clipPath>
</defs>
</svg>
