<svg width="115" height="115" viewBox="0 0 115 115" fill="none" xmlns="http://www.w3.org/2000/svg">
<g filter="url(#filter0_d_38_1059)">
<rect x="19" y="7" width="77" height="77" rx="10" fill="white"/>
</g>
<g clip-path="url(#clip0_38_1059)">
<path d="M57.5 64.25C47.1444 64.25 38.75 55.8556 38.75 45.5C38.75 35.1444 47.1444 26.75 57.5 26.75C67.8556 26.75 76.25 35.1444 76.25 45.5C76.25 55.8556 67.8556 64.25 57.5 64.25ZM57.5 60.5C61.4782 60.5 65.2936 58.9196 68.1066 56.1066C70.9196 53.2936 72.5 49.4782 72.5 45.5C72.5 41.5218 70.9196 37.7064 68.1066 34.8934C65.2936 32.0804 61.4782 30.5 57.5 30.5C53.5218 30.5 49.7064 32.0804 46.8934 34.8934C44.0804 37.7064 42.5 41.5218 42.5 45.5C42.5 49.4782 44.0804 53.2936 46.8934 56.1066C49.7064 58.9196 53.5218 60.5 57.5 60.5ZM50.9375 49.25H61.25C61.4986 49.25 61.7371 49.1512 61.9129 48.9754C62.0887 48.7996 62.1875 48.5611 62.1875 48.3125C62.1875 48.0639 62.0887 47.8254 61.9129 47.6496C61.7371 47.4738 61.4986 47.375 61.25 47.375H53.75C52.5068 47.375 51.3145 46.8811 50.4354 46.0021C49.5564 45.123 49.0625 43.9307 49.0625 42.6875C49.0625 41.4443 49.5564 40.252 50.4354 39.3729C51.3145 38.4939 52.5068 38 53.75 38H55.625V34.25H59.375V38H64.0625V41.75H53.75C53.5014 41.75 53.2629 41.8488 53.0871 42.0246C52.9113 42.2004 52.8125 42.4389 52.8125 42.6875C52.8125 42.9361 52.9113 43.1746 53.0871 43.3504C53.2629 43.5262 53.5014 43.625 53.75 43.625H61.25C62.4932 43.625 63.6855 44.1189 64.5646 44.9979C65.4436 45.877 65.9375 47.0693 65.9375 48.3125C65.9375 49.5557 65.4436 50.748 64.5646 51.6271C63.6855 52.5061 62.4932 53 61.25 53H59.375V56.75H55.625V53H50.9375V49.25Z" fill="#2654CA"/>
</g>
<defs>
<filter id="filter0_d_38_1059" x="0" y="0" width="115" height="115" filterUnits="userSpaceOnUse" color-interpolation-filters="sRGB">
<feFlood flood-opacity="0" result="BackgroundImageFix"/>
<feColorMatrix in="SourceAlpha" type="matrix" values="0 0 0 0 0 0 0 0 0 0 0 0 0 0 0 0 0 0 127 0" result="hardAlpha"/>
<feOffset dy="12"/>
<feGaussianBlur stdDeviation="9.5"/>
<feComposite in2="hardAlpha" operator="out"/>
<feColorMatrix type="matrix" values="0 0 0 0 0 0 0 0 0 0 0 0 0 0 0 0 0 0 0.15 0"/>
<feBlend mode="normal" in2="BackgroundImageFix" result="effect1_dropShadow_38_1059"/>
<feBlend mode="normal" in="SourceGraphic" in2="effect1_dropShadow_38_1059" result="shape"/>
</filter>
<clipPath id="clip0_38_1059">
<rect width="45" height="45" fill="white" transform="translate(35 23)"/>
</clipPath>
</defs>
</svg>
