<svg width="31" height="33" viewBox="0 0 31 33" fill="none" xmlns="http://www.w3.org/2000/svg">
<path d="M3.1123 16.0921C3.1123 23.4561 8.67932 29.4255 15.547 29.4255C22.4147 29.4255 27.9817 23.4561 27.9817 16.0921C27.9817 8.72812 22.4147 2.75879 15.547 2.75879C8.67932 2.75879 3.1123 8.72812 3.1123 16.0921Z" stroke="#454545" stroke-width="1.5" stroke-linecap="round" stroke-linejoin="round"/>
<path d="M16.7903 2.82544C16.7903 2.82544 20.5207 8.09211 20.5207 16.0921C20.5207 24.0921 16.7903 29.3588 16.7903 29.3588M14.3033 29.3588C14.3033 29.3588 10.5729 24.0921 10.5729 16.0921C10.5729 8.09211 14.3033 2.82544 14.3033 2.82544M3.89551 20.7588H27.1981M3.89551 11.4254H27.1981" stroke="#454545" stroke-width="1.5" stroke-linecap="round" stroke-linejoin="round"/>
</svg>
