<svg width="32" height="32" viewBox="0 0 32 32" fill="none" xmlns="http://www.w3.org/2000/svg">
<line x1="0.982422" y1="5.49646" x2="31.0167" y2="5.49646" stroke="#222222" stroke-width="1.75"/>
<line x1="12.8887" y1="25.5469" x2="19.0668" y2="25.5469" stroke="#222222" stroke-width="1.75"/>
<line x1="11.0371" y1="29.4886" x2="20.9243" y2="29.4886" stroke="#222222" stroke-width="1.75"/>
<line x1="27.9609" y1="6.37146" x2="27.9609" y2="1.63647" stroke="#222222" stroke-width="1.75"/>
<mask id="path-5-inside-1_155_2849" fill="white">
<path d="M3.01172 5.07129H28.8359V21.4211C28.8359 21.9734 28.3882 22.4211 27.8359 22.4211H4.01172C3.45943 22.4211 3.01172 21.9734 3.01172 21.4211V5.07129Z"/>
</mask>
<path d="M3.01172 5.07129H28.8359V21.4211C28.8359 21.9734 28.3882 22.4211 27.8359 22.4211H4.01172C3.45943 22.4211 3.01172 21.9734 3.01172 21.4211V5.07129Z" stroke="#222222" stroke-width="3.5" mask="url(#path-5-inside-1_155_2849)"/>
<mask id="path-6-inside-2_155_2849" fill="white">
<path d="M12.1094 12.6792C12.1094 12.1269 12.5571 11.6792 13.1094 11.6792H18.8642C19.4165 11.6792 19.8642 12.1269 19.8642 12.6792V22.4212H12.1094V12.6792Z"/>
</mask>
<path d="M12.1094 12.6792C12.1094 12.1269 12.5571 11.6792 13.1094 11.6792H18.8642C19.4165 11.6792 19.8642 12.1269 19.8642 12.6792V22.4212H12.1094V12.6792Z" stroke="#222222" stroke-width="3.5" mask="url(#path-6-inside-2_155_2849)"/>
<circle cx="24.0215" cy="9.56018" r="1" fill="#222222"/>
</svg>
