<svg width="33" height="32" viewBox="0 0 33 32" fill="none" xmlns="http://www.w3.org/2000/svg">
<rect x="0.875" y="0.875" width="18.6176" height="30.25" rx="1.4453" stroke="#222222" stroke-width="1.75"/>
<circle cx="6.48828" cy="6.57776" r="1" fill="#222222"/>
<circle cx="6.48828" cy="11.2323" r="1" fill="#222222"/>
<circle cx="6.48828" cy="15.8868" r="1" fill="#222222"/>
<circle cx="13.4863" cy="6.57776" r="1" fill="#222222"/>
<circle cx="13.4863" cy="11.2323" r="1" fill="#222222"/>
<circle cx="25.043" cy="11.2323" r="1" fill="#222222"/>
<circle cx="13.4863" cy="15.8868" r="1" fill="#222222"/>
<circle cx="25.043" cy="15.8729" r="1" fill="#222222"/>
<path d="M6.64258 24.4807C6.64258 23.6825 7.28966 23.0354 8.08788 23.0354H12.2042C13.0024 23.0354 13.6495 23.6825 13.6495 24.4807V31.125H6.64258V24.4807Z" stroke="#222222" stroke-width="1.75"/>
<path fill-rule="evenodd" clip-rule="evenodd" d="M18.8638 7.49169H29.8532C30.1735 7.49169 30.4332 7.7514 30.4332 8.07176V29.6798C30.4332 30.0001 30.1735 30.2598 29.8532 30.2598H18.5851C18.3275 31.2606 17.4191 32.0001 16.3379 32.0001H29.8532C31.1346 32.0001 32.1734 30.9612 32.1734 29.6798V8.07176C32.1734 6.7903 31.1346 5.75146 29.8532 5.75146H18.8638V7.49169Z" fill="#222222"/>
</svg>
