<svg width="33" height="31" viewBox="0 0 33 31" fill="none" xmlns="http://www.w3.org/2000/svg">
<path d="M17.848 2.26672L21.4823 9.60387C21.565 9.79009 21.695 9.9514 21.8594 10.0717C22.0239 10.192 22.217 10.2671 22.4195 10.2896L30.4423 11.4782C30.6746 11.508 30.8936 11.6033 31.0738 11.753C31.2539 11.9027 31.3877 12.1005 31.4596 12.3234C31.5316 12.5463 31.5386 12.7851 31.4798 13.0118C31.4211 13.2385 31.2991 13.4439 31.128 13.6039L25.3452 19.341C25.1976 19.4789 25.0868 19.6515 25.0229 19.8431C24.9591 20.0347 24.9441 20.2393 24.9795 20.4382L26.3737 28.5067C26.4141 28.7386 26.3886 28.9771 26.3001 29.1951C26.2116 29.4132 26.0637 29.602 25.8731 29.7402C25.6826 29.8783 25.4571 29.9602 25.2224 29.9765C24.9876 29.9928 24.753 29.9429 24.5452 29.8324L17.3223 26.0153C17.1374 25.9245 16.9341 25.8773 16.728 25.8773C16.522 25.8773 16.3187 25.9245 16.1337 26.0153L8.91089 29.8324C8.70309 29.9429 8.46846 29.9928 8.23369 29.9765C7.99893 29.9602 7.77345 29.8783 7.58292 29.7402C7.3924 29.602 7.24447 29.4132 7.15597 29.1951C7.06747 28.9771 7.04195 28.7386 7.08232 28.5067L8.47661 20.3467C8.51194 20.1479 8.49699 19.9433 8.43312 19.7517C8.36925 19.5601 8.25848 19.3875 8.11089 19.2496L2.25946 13.6039C2.08635 13.4395 1.9646 13.2285 1.90898 12.9964C1.85335 12.7642 1.86624 12.5209 1.94606 12.296C2.02589 12.071 2.16923 11.874 2.35873 11.7289C2.54823 11.5837 2.77576 11.4966 3.01375 11.4782L11.0366 10.2896C11.2391 10.2671 11.4322 10.192 11.5966 10.0717C11.7611 9.9514 11.8911 9.79009 11.9737 9.60387L15.608 2.26672C15.707 2.05303 15.865 1.87211 16.0635 1.74531C16.2619 1.61852 16.4925 1.55115 16.728 1.55115C16.9635 1.55115 17.1941 1.61852 17.3926 1.74531C17.591 1.87211 17.7491 2.05303 17.848 2.26672Z" stroke="#454545" stroke-width="2" stroke-linecap="round" stroke-linejoin="round"/>
</svg>
