<svg width="114" height="50" viewBox="0 0 114 50" fill="none" xmlns="http://www.w3.org/2000/svg">
<path d="M0 14.5274C0 9.44236 0 6.89982 0.989622 4.95757C1.86012 3.24913 3.24913 1.86012 4.95757 0.989622C6.89982 0 9.44236 0 14.5274 0H99.4726C104.558 0 107.1 0 109.042 0.989622C110.751 1.86012 112.14 3.24913 113.01 4.95757C114 6.89982 114 9.44236 114 14.5274V35.4726C114 40.5576 114 43.1002 113.01 45.0424C112.14 46.7509 110.751 48.1399 109.042 49.0104C107.1 50 104.558 50 99.4726 50H14.5274C9.44236 50 6.89982 50 4.95757 49.0104C3.24913 48.1399 1.86012 46.7509 0.989622 45.0424C0 43.1002 0 40.5576 0 35.4726V14.5274Z" fill="#371DAE"/>
</svg>
