<svg width="56" height="56" viewBox="0 0 56 56" fill="none" xmlns="http://www.w3.org/2000/svg">
<path d="M0.5 0.5H51C53.4853 0.5 55.5 2.51472 55.5 5V51C55.5 53.4853 53.4853 55.5 51 55.5H0.5V0.5Z" fill="#371DAE"/>
<path d="M26.8075 16.4928C24.8925 16.4928 23.0205 17.0662 21.4282 18.1404C19.8359 19.2146 18.5949 20.7415 17.862 22.5278C17.1292 24.3142 16.9374 26.2799 17.3111 28.1763C17.6847 30.0727 18.6068 31.8146 19.9609 33.1819C21.3151 34.5491 23.0403 35.4802 24.9185 35.8574C26.7967 36.2346 28.7436 36.041 30.5128 35.3011C32.282 34.5611 33.7942 33.3081 34.8582 31.7004C35.9221 30.0927 36.49 28.2026 36.49 26.269C36.4898 23.6763 35.4696 21.1897 33.6538 19.3564C31.8381 17.523 29.3754 16.493 26.8075 16.4928Z" stroke="#F8F8F8" stroke-width="3" stroke-miterlimit="10"/>
<path d="M34.0312 33.5628L40.7934 40.3904" stroke="#F8F8F8" stroke-width="3" stroke-miterlimit="10" stroke-linecap="round"/>
<path d="M0.5 0.5H51C53.4853 0.5 55.5 2.51472 55.5 5V51C55.5 53.4853 53.4853 55.5 51 55.5H0.5V0.5Z" stroke="#E6E6E6"/>
</svg>
