<svg width="34" height="33" viewBox="0 0 34 33" fill="none" xmlns="http://www.w3.org/2000/svg">
<path d="M24.125 19.2178C24.4897 19.2178 24.8394 19.0773 25.0973 18.8273C25.3551 18.5772 25.5 18.2381 25.5 17.8845C25.5 17.5309 25.3551 17.1917 25.0973 16.9417C24.8394 16.6916 24.4897 16.5511 24.125 16.5511C23.7603 16.5511 23.4106 16.6916 23.1527 16.9417C22.8949 17.1917 22.75 17.5309 22.75 17.8845C22.75 18.2381 22.8949 18.5772 23.1527 18.8273C23.4106 19.0773 23.7603 19.2178 24.125 19.2178ZM24.125 24.5511C24.4897 24.5511 24.8394 24.4107 25.0973 24.1606C25.3551 23.9106 25.5 23.5714 25.5 23.2178C25.5 22.8642 25.3551 22.5251 25.0973 22.275C24.8394 22.025 24.4897 21.8845 24.125 21.8845C23.7603 21.8845 23.4106 22.025 23.1527 22.275C22.8949 22.5251 22.75 22.8642 22.75 23.2178C22.75 23.5714 22.8949 23.9106 23.1527 24.1606C23.4106 24.4107 23.7603 24.5511 24.125 24.5511ZM18.625 17.8845C18.625 18.2381 18.4801 18.5772 18.2223 18.8273C17.9644 19.0773 17.6147 19.2178 17.25 19.2178C16.8853 19.2178 16.5356 19.0773 16.2777 18.8273C16.0199 18.5772 15.875 18.2381 15.875 17.8845C15.875 17.5309 16.0199 17.1917 16.2777 16.9417C16.5356 16.6916 16.8853 16.5511 17.25 16.5511C17.6147 16.5511 17.9644 16.6916 18.2223 16.9417C18.4801 17.1917 18.625 17.5309 18.625 17.8845ZM18.625 23.2178C18.625 23.5714 18.4801 23.9106 18.2223 24.1606C17.9644 24.4107 17.6147 24.5511 17.25 24.5511C16.8853 24.5511 16.5356 24.4107 16.2777 24.1606C16.0199 23.9106 15.875 23.5714 15.875 23.2178C15.875 22.8642 16.0199 22.5251 16.2777 22.275C16.5356 22.025 16.8853 21.8845 17.25 21.8845C17.6147 21.8845 17.9644 22.025 18.2223 22.275C18.4801 22.5251 18.625 22.8642 18.625 23.2178ZM10.375 19.2178C10.7397 19.2178 11.0894 19.0773 11.3473 18.8273C11.6051 18.5772 11.75 18.2381 11.75 17.8845C11.75 17.5309 11.6051 17.1917 11.3473 16.9417C11.0894 16.6916 10.7397 16.5511 10.375 16.5511C10.0103 16.5511 9.66059 16.6916 9.40273 16.9417C9.14487 17.1917 9 17.5309 9 17.8845C9 18.2381 9.14487 18.5772 9.40273 18.8273C9.66059 19.0773 10.0103 19.2178 10.375 19.2178ZM10.375 24.5511C10.7397 24.5511 11.0894 24.4107 11.3473 24.1606C11.6051 23.9106 11.75 23.5714 11.75 23.2178C11.75 22.8642 11.6051 22.5251 11.3473 22.275C11.0894 22.025 10.7397 21.8845 10.375 21.8845C10.0103 21.8845 9.66059 22.025 9.40273 22.275C9.14487 22.5251 9 22.8642 9 23.2178C9 23.5714 9.14487 23.9106 9.40273 24.1606C9.66059 24.4107 10.0103 24.5511 10.375 24.5511Z" fill="#4D4D4D"/>
<path fill-rule="evenodd" clip-rule="evenodd" d="M10.375 2.88446C10.6485 2.88446 10.9108 2.98982 11.1042 3.17735C11.2976 3.36489 11.4062 3.61924 11.4062 3.88446V4.90179C12.3165 4.88446 13.3189 4.88446 14.4216 4.88446H20.077C21.1811 4.88446 22.1835 4.88446 23.0938 4.90179V3.88446C23.0938 3.61924 23.2024 3.36489 23.3958 3.17735C23.5892 2.98982 23.8515 2.88446 24.125 2.88446C24.3985 2.88446 24.6608 2.98982 24.8542 3.17735C25.0476 3.36489 25.1562 3.61924 25.1562 3.88446V4.98713C25.5138 5.01379 25.852 5.04713 26.1724 5.08846C27.7839 5.29913 29.0887 5.74179 30.1186 6.73913C31.1471 7.73779 31.6036 9.00313 31.8209 10.5658C32.0312 12.0858 32.0312 14.0258 32.0312 16.4765V19.2925C32.0312 21.7431 32.0312 23.6845 31.8209 25.2031C31.6036 26.7658 31.1471 28.0311 30.1186 29.0298C29.0887 30.0271 27.7839 30.4698 26.1724 30.6805C24.6049 30.8845 22.6042 30.8845 20.077 30.8845H14.423C11.8958 30.8845 9.89375 30.8845 8.32763 30.6805C6.71613 30.4698 5.41125 30.0271 4.38138 29.0298C3.35287 28.0311 2.89638 26.7658 2.67912 25.2031C2.46875 23.6831 2.46875 21.7431 2.46875 19.2925V16.4765C2.46875 14.0258 2.46875 12.0845 2.67912 10.5658C2.89638 9.00313 3.35287 7.73779 4.38138 6.73913C5.41125 5.74179 6.71613 5.29913 8.32763 5.08846C8.648 5.04713 8.98763 5.01379 9.34375 4.98713V3.88446C9.34375 3.61924 9.4524 3.36489 9.6458 3.17735C9.83919 2.98982 10.1015 2.88446 10.375 2.88446ZM8.60125 7.07113C7.21938 7.25113 6.42187 7.58979 5.84025 8.15379C5.25862 8.71779 4.90938 9.49113 4.72375 10.8325C4.69213 11.0591 4.666 11.2991 4.644 11.5511H29.856C29.834 11.2978 29.8079 11.0591 29.7763 10.8311C29.5906 9.49113 29.2414 8.71779 28.6597 8.15379C28.0781 7.58979 27.2806 7.25113 25.8974 7.07113C24.4852 6.88713 22.6221 6.88446 20 6.88446H14.5C11.8779 6.88446 10.0161 6.88713 8.60125 7.07113ZM4.53125 16.5511C4.53125 15.4125 4.53125 14.4218 4.54912 13.5511H29.9509C29.9688 14.4218 29.9688 15.4125 29.9688 16.5511V19.2178C29.9688 21.7605 29.966 23.5671 29.7763 24.9378C29.5906 26.2778 29.2414 27.0511 28.6597 27.6151C28.0781 28.1791 27.2806 28.5178 25.8974 28.6978C24.4852 28.8818 22.6221 28.8845 20 28.8845H14.5C11.8779 28.8845 10.0161 28.8818 8.60125 28.6978C7.21938 28.5178 6.42187 28.1791 5.84025 27.6151C5.25862 27.0511 4.90938 26.2778 4.72375 24.9365C4.534 23.5671 4.53125 21.7605 4.53125 19.2178V16.5511Z" fill="#4D4D4D"/>
</svg>
