<svg width="34" height="33" viewBox="0 0 34 33" fill="none" xmlns="http://www.w3.org/2000/svg">
<path d="M23.625 19.1261C23.9897 19.1261 24.3394 18.9857 24.5973 18.7356C24.8551 18.4856 25 18.1464 25 17.7928C25 17.4392 24.8551 17.1 24.5973 16.85C24.3394 16.5999 23.9897 16.4595 23.625 16.4595C23.2603 16.4595 22.9106 16.5999 22.6527 16.85C22.3949 17.1 22.25 17.4392 22.25 17.7928C22.25 18.1464 22.3949 18.4856 22.6527 18.7356C22.9106 18.9857 23.2603 19.1261 23.625 19.1261ZM23.625 24.4595C23.9897 24.4595 24.3394 24.319 24.5973 24.0689C24.8551 23.8189 25 23.4798 25 23.1261C25 22.7725 24.8551 22.4334 24.5973 22.1833C24.3394 21.9333 23.9897 21.7928 23.625 21.7928C23.2603 21.7928 22.9106 21.9333 22.6527 22.1833C22.3949 22.4334 22.25 22.7725 22.25 23.1261C22.25 23.4798 22.3949 23.8189 22.6527 24.0689C22.9106 24.319 23.2603 24.4595 23.625 24.4595ZM18.125 17.7928C18.125 18.1464 17.9801 18.4856 17.7223 18.7356C17.4644 18.9857 17.1147 19.1261 16.75 19.1261C16.3853 19.1261 16.0356 18.9857 15.7777 18.7356C15.5199 18.4856 15.375 18.1464 15.375 17.7928C15.375 17.4392 15.5199 17.1 15.7777 16.85C16.0356 16.5999 16.3853 16.4595 16.75 16.4595C17.1147 16.4595 17.4644 16.5999 17.7223 16.85C17.9801 17.1 18.125 17.4392 18.125 17.7928ZM18.125 23.1261C18.125 23.4798 17.9801 23.8189 17.7223 24.0689C17.4644 24.319 17.1147 24.4595 16.75 24.4595C16.3853 24.4595 16.0356 24.319 15.7777 24.0689C15.5199 23.8189 15.375 23.4798 15.375 23.1261C15.375 22.7725 15.5199 22.4334 15.7777 22.1833C16.0356 21.9333 16.3853 21.7928 16.75 21.7928C17.1147 21.7928 17.4644 21.9333 17.7223 22.1833C17.9801 22.4334 18.125 22.7725 18.125 23.1261ZM9.875 19.1261C10.2397 19.1261 10.5894 18.9857 10.8473 18.7356C11.1051 18.4856 11.25 18.1464 11.25 17.7928C11.25 17.4392 11.1051 17.1 10.8473 16.85C10.5894 16.5999 10.2397 16.4595 9.875 16.4595C9.51033 16.4595 9.16059 16.5999 8.90273 16.85C8.64487 17.1 8.5 17.4392 8.5 17.7928C8.5 18.1464 8.64487 18.4856 8.90273 18.7356C9.16059 18.9857 9.51033 19.1261 9.875 19.1261ZM9.875 24.4595C10.2397 24.4595 10.5894 24.319 10.8473 24.0689C11.1051 23.8189 11.25 23.4798 11.25 23.1261C11.25 22.7725 11.1051 22.4334 10.8473 22.1833C10.5894 21.9333 10.2397 21.7928 9.875 21.7928C9.51033 21.7928 9.16059 21.9333 8.90273 22.1833C8.64487 22.4334 8.5 22.7725 8.5 23.1261C8.5 23.4798 8.64487 23.8189 8.90273 24.0689C9.16059 24.319 9.51033 24.4595 9.875 24.4595Z" fill="#4D4D4D"/>
<path fill-rule="evenodd" clip-rule="evenodd" d="M9.875 2.79272C10.1485 2.79272 10.4108 2.89808 10.6042 3.08562C10.7976 3.27315 10.9062 3.52751 10.9062 3.79272V4.81006C11.8165 4.79272 12.8189 4.79272 13.9216 4.79272H19.577C20.6811 4.79272 21.6835 4.79272 22.5938 4.81006V3.79272C22.5938 3.52751 22.7024 3.27315 22.8958 3.08562C23.0892 2.89808 23.3515 2.79272 23.625 2.79272C23.8985 2.79272 24.1608 2.89808 24.3542 3.08562C24.5476 3.27315 24.6562 3.52751 24.6562 3.79272V4.89539C25.0138 4.92206 25.352 4.95539 25.6724 4.99672C27.2839 5.20739 28.5887 5.65006 29.6186 6.64739C30.6471 7.64606 31.1036 8.91139 31.3209 10.4741C31.5312 11.9941 31.5312 13.9341 31.5312 16.3847V19.2007C31.5312 21.6514 31.5312 23.5927 31.3209 25.1114C31.1036 26.6741 30.6471 27.9394 29.6186 28.9381C28.5887 29.9354 27.2839 30.3781 25.6724 30.5887C24.1049 30.7927 22.1042 30.7927 19.577 30.7927H13.923C11.3958 30.7927 9.39375 30.7927 7.82763 30.5887C6.21613 30.3781 4.91125 29.9354 3.88138 28.9381C2.85287 27.9394 2.39638 26.6741 2.17912 25.1114C1.96875 23.5914 1.96875 21.6514 1.96875 19.2007V16.3847C1.96875 13.9341 1.96875 11.9927 2.17912 10.4741C2.39638 8.91139 2.85287 7.64606 3.88138 6.64739C4.91125 5.65006 6.21613 5.20739 7.82763 4.99672C8.148 4.95539 8.48763 4.92206 8.84375 4.89539V3.79272C8.84375 3.52751 8.9524 3.27315 9.1458 3.08562C9.33919 2.89808 9.6015 2.79272 9.875 2.79272ZM8.10125 6.97939C6.71938 7.15939 5.92187 7.49806 5.34025 8.06206C4.75862 8.62606 4.40938 9.39939 4.22375 10.7407C4.19213 10.9674 4.166 11.2074 4.144 11.4594H29.356C29.334 11.2061 29.3079 10.9674 29.2763 10.7394C29.0906 9.39939 28.7414 8.62606 28.1597 8.06206C27.5781 7.49806 26.7806 7.15939 25.3974 6.97939C23.9852 6.79539 22.1221 6.79272 19.5 6.79272H14C11.3779 6.79272 9.51613 6.79539 8.10125 6.97939ZM4.03125 16.4594C4.03125 15.3207 4.03125 14.3301 4.04912 13.4594H29.4509C29.4688 14.3301 29.4688 15.3207 29.4688 16.4594V19.1261C29.4688 21.6687 29.466 23.4754 29.2763 24.8461C29.0906 26.1861 28.7414 26.9594 28.1597 27.5234C27.5781 28.0874 26.7806 28.4261 25.3974 28.6061C23.9852 28.7901 22.1221 28.7927 19.5 28.7927H14C11.3779 28.7927 9.51613 28.7901 8.10125 28.6061C6.71938 28.4261 5.92187 28.0874 5.34025 27.5234C4.75862 26.9594 4.40938 26.1861 4.22375 24.8447C4.034 23.4754 4.03125 21.6687 4.03125 19.1261V16.4594Z" fill="#4D4D4D"/>
</svg>
