<svg width="25" height="26" viewBox="0 0 25 26" fill="none" xmlns="http://www.w3.org/2000/svg">
<g opacity="0.991319" clip-path="url(#clip0_10_6606)">
<path d="M21.5036 5.36263C20.9837 4.84248 20.3664 4.42986 19.687 4.14834C19.0076 3.86682 18.2794 3.72192 17.5439 3.72192C16.8085 3.72192 16.0803 3.86682 15.4009 4.14834C14.7214 4.42986 14.1041 4.84248 13.5842 5.36263L12.5052 6.44162L11.4263 5.36263C10.3761 4.31245 8.95173 3.72247 7.46655 3.72247C5.98138 3.72247 4.55704 4.31245 3.50686 5.36263C2.45668 6.4128 1.8667 7.83715 1.8667 9.32232C1.8667 10.8075 2.45668 12.2318 3.50686 13.282L4.58585 14.361L12.5052 22.2804L20.4246 14.361L21.5036 13.282C22.0238 12.7621 22.4364 12.1448 22.7179 11.4654C22.9994 10.786 23.1443 10.0578 23.1443 9.32232C23.1443 8.58689 22.9994 7.85867 22.7179 7.17925C22.4364 6.49983 22.0238 5.88254 21.5036 5.36263Z" stroke="#4B55C4" stroke-width="2" stroke-linecap="round" stroke-linejoin="round"/>
</g>
<defs>
<clipPath id="clip0_10_6606">
<rect width="24.43" height="24.43" fill="white" transform="translate(0.290039 0.669922)"/>
</clipPath>
</defs>
</svg>
