<svg width="26" height="34" viewBox="0 0 26 34" fill="none" xmlns="http://www.w3.org/2000/svg">
<path d="M13 33.2157L3.03019 21.4134C2.89166 21.2362 2.75457 21.0579 2.61892 20.8784C0.915899 18.6266 -0.00411413 15.8762 1.38307e-05 13.049C1.38307e-05 9.5882 1.36965 6.26913 3.80762 3.82197C6.24559 1.3748 9.55219 0 13 0C16.4478 0 19.7544 1.3748 22.1924 3.82197C24.6304 6.26913 26 9.5882 26 13.049C26.0041 15.8749 25.0845 18.6241 23.3823 20.8749L23.3811 20.8784C23.3811 20.8784 23.0265 21.3458 22.9734 21.4087L13 33.2157ZM4.5051 19.449C4.50746 19.449 4.78165 19.8143 4.84428 19.8926L13 29.5477L21.1664 19.8796C21.2184 19.8143 21.4949 19.4466 21.4961 19.4454C22.8873 17.6056 23.6391 15.3587 23.6364 13.049C23.6364 10.2174 22.5157 7.50184 20.521 5.49961C18.5263 3.49739 15.8209 2.37255 13 2.37255C10.1791 2.37255 7.47367 3.49739 5.47896 5.49961C3.48426 7.50184 2.36365 10.2174 2.36365 13.049C2.36117 15.3602 3.11266 17.6084 4.5051 19.449Z" fill="black"/>
</svg>
