<svg width="22" height="21" viewBox="0 0 22 21" fill="none" xmlns="http://www.w3.org/2000/svg">
<path fill-rule="evenodd" clip-rule="evenodd" d="M18.8527 3.99556C18.9209 3.93047 18.975 3.85321 19.0119 3.76817C19.0488 3.68314 19.0678 3.592 19.0678 3.49996C19.0678 3.40791 19.0488 3.31677 19.0119 3.23174C18.975 3.1467 18.9209 3.06944 18.8527 3.00436C18.7846 2.93927 18.7036 2.88765 18.6145 2.85242C18.5254 2.8172 18.43 2.79907 18.3335 2.79907C18.2371 2.79907 18.1416 2.8172 18.0526 2.85242C17.9635 2.88765 17.8825 2.93927 17.8143 3.00436L11.0002 9.51016L4.18608 3.00436C4.11789 2.93927 4.03695 2.88765 3.94787 2.85242C3.85878 2.8172 3.7633 2.79907 3.66688 2.79907C3.57045 2.79907 3.47497 2.8172 3.38589 2.85242C3.2968 2.88765 3.21586 2.93927 3.14768 3.00436C3.07949 3.06944 3.02541 3.1467 2.98851 3.23174C2.95161 3.31677 2.93262 3.40791 2.93262 3.49996C2.93262 3.592 2.95161 3.68314 2.98851 3.76817C3.02541 3.85321 3.07949 3.93047 3.14768 3.99556L9.96328 10.5L3.14768 17.0044C3.00998 17.1358 2.93262 17.3141 2.93262 17.5C2.93262 17.6858 3.00998 17.8641 3.14768 17.9956C3.28538 18.127 3.47214 18.2008 3.66688 18.2008C3.86161 18.2008 4.04838 18.127 4.18608 17.9956L11.0002 11.4898L17.8143 17.9956C17.952 18.127 18.1388 18.2008 18.3335 18.2008C18.5283 18.2008 18.715 18.127 18.8527 17.9956C18.9904 17.8641 19.0678 17.6858 19.0678 17.5C19.0678 17.3141 18.9904 17.1358 18.8527 17.0044L12.0371 10.5L18.8527 3.99556Z" fill="black"/>
</svg>
