<svg width="35" height="35" viewBox="0 0 35 35" fill="none" xmlns="http://www.w3.org/2000/svg">
<path d="M8.12438 11.5019C7.70657 8.75 9.64688 6.27813 12.6109 5.37251C13.1369 5.21169 13.7045 5.25746 14.1979 5.50052C14.6913 5.74357 15.0735 6.1656 15.2666 6.68063L16.2181 9.21813C16.3713 9.62635 16.399 10.071 16.2977 10.4951C16.1963 10.9192 15.9706 11.3033 15.6494 11.5981L12.8188 14.1903C12.6792 14.3184 12.5753 14.4804 12.517 14.6606C12.4587 14.8407 12.4481 15.0329 12.4863 15.2184L12.5125 15.3322L12.5803 15.6166C12.9323 16.9983 13.4687 18.3264 14.175 19.565C14.9444 20.8812 15.8992 22.0799 17.01 23.1241L17.0975 23.2028C17.2388 23.3283 17.4102 23.4149 17.595 23.4544C17.7798 23.4939 17.9716 23.4848 18.1519 23.4281L21.8116 22.2753C22.2275 22.1447 22.6729 22.1414 23.0907 22.2657C23.5086 22.3901 23.8797 22.6364 24.1566 22.9731L25.8891 25.0753C26.6109 25.9503 26.5234 27.2366 25.6944 28.0088C23.4259 30.1241 20.3066 30.5572 18.1366 28.8138C15.4766 26.6682 13.2343 24.0513 11.5216 21.0941C9.79495 18.1391 8.64382 14.8847 8.12438 11.5019ZM14.7809 15.3628L17.1259 13.2103C17.7687 12.6209 18.2206 11.8528 18.4237 11.0046C18.6268 10.1565 18.5717 9.26696 18.2656 8.45032L17.3163 5.91282C16.9276 4.87648 16.1585 4.02732 15.1655 3.53837C14.1726 3.04942 13.0306 2.95747 11.9722 3.28126C8.29063 4.40782 5.33532 7.70876 5.96094 11.8322C6.39844 14.7109 7.40688 18.3728 9.63157 22.1966C11.4794 25.3853 13.8982 28.2067 16.7672 30.52C20.0222 33.1341 24.3666 32.2416 27.1884 29.6122C27.9959 28.8604 28.486 27.8288 28.5588 26.728C28.6315 25.6271 28.2815 24.54 27.58 23.6884L25.8475 21.5841C25.2933 20.9114 24.5507 20.4195 23.7151 20.1717C22.8795 19.9238 21.9889 19.9312 21.1575 20.1928L18.1191 21.1488C17.3346 20.3399 16.6474 19.442 16.0716 18.4734C15.5153 17.4942 15.0819 16.4502 14.7809 15.365V15.3628Z" fill="black"/>
</svg>
