<svg width="24" height="24" viewBox="0 0 24 24" fill="none" xmlns="http://www.w3.org/2000/svg">
<path d="M19.4932 14.25C19.4932 14.4489 19.4141 14.6397 19.2735 14.7803C19.1328 14.921 18.9421 15 18.7432 15C18.5443 15 18.3535 14.921 18.2128 14.7803C18.0722 14.6397 17.9932 14.4489 17.9932 14.25C17.9932 14.0511 18.0722 13.8603 18.2128 13.7197C18.3535 13.579 18.5443 13.5 18.7432 13.5C18.9421 13.5 19.1328 13.579 19.2735 13.7197C19.4141 13.8603 19.4932 14.0511 19.4932 14.25ZM5.24316 13.5C5.04425 13.5 4.85349 13.579 4.71283 13.7197C4.57218 13.8603 4.49316 14.0511 4.49316 14.25C4.49316 14.4489 4.57218 14.6397 4.71283 14.7803C4.85349 14.921 5.04425 15 5.24316 15C5.44208 15 5.63284 14.921 5.77349 14.7803C5.91415 14.6397 5.99316 14.4489 5.99316 14.25C5.99316 14.0511 5.91415 13.8603 5.77349 13.7197C5.63284 13.579 5.44208 13.5 5.24316 13.5ZM20.7682 9.75L21.0757 10.59C21.5155 10.9373 21.8714 11.3793 22.1168 11.8831C22.3622 12.3869 22.4908 12.9396 22.4932 13.5V20.25C22.4932 20.6478 22.3351 21.0294 22.0538 21.3107C21.7725 21.592 21.391 21.75 20.9932 21.75H19.4932C19.0953 21.75 18.7138 21.592 18.4325 21.3107C18.1512 21.0294 17.9932 20.6478 17.9932 20.25V18.75H5.99316V20.25C5.99316 20.6478 5.83513 21.0294 5.55382 21.3107C5.27252 21.592 4.89099 21.75 4.49316 21.75H2.99316C2.59534 21.75 2.21381 21.592 1.9325 21.3107C1.6512 21.0294 1.49316 20.6478 1.49316 20.25V13.5C1.49316 12.3225 2.05566 11.28 2.91066 10.59L3.21816 9.75H1.49316V8.25H3.74316V8.3625L5.10816 4.725C5.21499 4.4391 5.40648 4.19259 5.65708 4.01837C5.90768 3.84416 6.20546 3.75053 6.51066 3.75H17.4757C18.0982 3.75 18.6607 4.14 18.8782 4.725L20.2432 8.3625V8.25H22.4932V9.75H20.7682ZM4.49316 18.75H2.99316V20.25H4.49316V18.75ZM20.9932 18.75H19.4932V20.25H20.9932V18.75ZM20.9932 17.25V13.5C20.9932 12.9033 20.7561 12.331 20.3342 11.909C19.9122 11.4871 19.3399 11.25 18.7432 11.25H5.24316C4.64643 11.25 4.07413 11.4871 3.65217 11.909C3.23022 12.331 2.99316 12.9033 2.99316 13.5V17.25H20.9932ZM18.7432 9.75H19.1632L17.4682 5.25H6.51066L4.82316 9.75H18.7432ZM7.49316 15H16.4932V13.5H7.49316V15Z" fill="#222222"/>
</svg>
