<svg width="24" height="24" viewBox="0 0 24 24" fill="none" xmlns="http://www.w3.org/2000/svg">
<g clip-path="url(#clip0_83_614)">
<path d="M6.74317 21.75V20.25H8.24317V18.75H4.49317C3.52654 18.7509 2.59689 18.3786 1.89819 17.7106C1.19948 17.0427 0.785697 16.1307 0.743166 15.165V6C0.74223 5.03338 1.11459 4.10373 1.78255 3.40502C2.45051 2.70632 3.36248 2.29253 4.32817 2.25H19.4932C20.4598 2.24907 21.3894 2.62142 22.0881 3.28939C22.7868 3.95735 23.2006 4.86931 23.2432 5.835V15C23.2441 15.9666 22.8717 16.8963 22.2038 17.595C21.5358 18.2937 20.6239 18.7075 19.6582 18.75H15.7432V20.25H17.2432V21.75H6.74317ZM14.2432 18.75H9.74317V20.25H14.2432V18.75ZM19.4932 3.75H4.49317C3.9191 3.74897 3.36635 3.9674 2.94807 4.36059C2.52978 4.75377 2.27761 5.29197 2.24317 5.865V15C2.24213 15.5741 2.46057 16.1268 2.85375 16.5451C3.24694 16.9634 3.78513 17.2156 4.35817 17.25H19.4932C20.0672 17.251 20.62 17.0326 21.0383 16.6394C21.4566 16.2462 21.7087 15.708 21.7432 15.135V6C21.7442 5.42593 21.5258 4.87318 21.1326 4.4549C20.7394 4.03662 20.2012 3.78444 19.6282 3.75H19.4932Z" fill="#222222"/>
</g>
<defs>
<clipPath id="clip0_83_614">
<rect width="24" height="24" fill="white" transform="translate(-0.00683594)"/>
</clipPath>
</defs>
</svg>
