<svg width="25" height="24" viewBox="0 0 25 24" fill="none" xmlns="http://www.w3.org/2000/svg">
<path d="M13.083 0.75V3.7725L16.1055 2.0325L16.8555 3.33L13.083 5.505V10.7025L17.583 8.1V3.75H19.083V7.2375L21.7005 5.7225L22.4505 7.0275L19.833 8.535L22.8555 10.2825L22.1055 11.58L18.333 9.405L13.833 12L18.333 14.595L22.1055 12.42L22.8555 13.7175L19.833 15.465L22.4505 16.9725L21.7005 18.2775L19.083 16.7625V20.25H17.583V15.9L13.083 13.2975V18.495L16.8555 20.67L16.1055 21.9675L13.083 20.2275V23.25H11.583V20.2275L8.56055 21.9675L7.81055 20.67L11.583 18.495V13.2975L7.08305 15.9V20.25H5.58305V16.7625L2.96555 18.2775L2.21555 16.9725L4.83305 15.465L1.81055 13.7175L2.56055 12.42L6.33305 14.595L10.833 12L6.33305 9.405L2.56055 11.58L1.81055 10.2825L4.83305 8.535L2.21555 7.0275L2.96555 5.7225L5.58305 7.2375V3.75H7.08305V8.1L11.583 10.7025V5.505L7.81055 3.33L8.56055 2.0325L11.583 3.7725V0.75H13.083Z" fill="#222222"/>
</svg>
