<svg width="25" height="24" viewBox="0 0 25 24" fill="none" xmlns="http://www.w3.org/2000/svg">
<path d="M20.0505 1.5C20.5913 1.50189 21.1134 1.6985 21.5211 2.05385C21.9287 2.4092 22.1948 2.89951 22.2705 3.435C22.6455 6.105 22.833 8.9625 22.833 12C22.833 15.0375 22.6455 17.895 22.2705 20.565C22.1971 21.0782 21.9488 21.5502 21.5676 21.9014C21.1863 22.2526 20.6954 22.4614 20.178 22.4925L20.0505 22.5H4.60801C4.06719 22.4981 3.54515 22.3015 3.13746 21.9461C2.72977 21.5908 2.46372 21.1005 2.38801 20.565C2.02051 17.895 1.83301 15.0375 1.83301 12C1.83301 8.9625 2.02051 6.105 2.39551 3.435C2.46888 2.92184 2.71718 2.44976 3.09845 2.09856C3.47972 1.74735 3.97057 1.53857 4.48801 1.5075L4.60801 1.5H20.0505ZM20.0505 3H4.62301C4.44102 2.99821 4.26459 3.06265 4.1266 3.18132C3.98861 3.3 3.89848 3.46479 3.87301 3.645C3.50013 6.41417 3.3197 9.20587 3.33301 12C3.33301 14.97 3.51301 17.7525 3.88051 20.355C3.90406 20.5182 3.98074 20.6691 4.09869 20.7844C4.21665 20.8996 4.36929 20.9728 4.53301 20.9925L4.61551 21H20.043C20.225 21.0018 20.4014 20.9373 20.5394 20.8187C20.6774 20.7 20.7675 20.5352 20.793 20.355C21.153 17.7525 21.333 14.97 21.333 12C21.333 9.03 21.153 6.2475 20.7855 3.645C20.7606 3.46861 20.6737 3.30683 20.5404 3.18865C20.4071 3.07047 20.2361 3.00359 20.058 3H20.0505ZM12.333 5.25C14.1232 5.25 15.8401 5.96116 17.106 7.22703C18.3718 8.4929 19.083 10.2098 19.083 12C19.083 13.7902 18.3718 15.5071 17.106 16.773C15.8401 18.0388 14.1232 18.75 12.333 18.75C10.5428 18.75 8.82591 18.0388 7.56004 16.773C6.29417 15.5071 5.58301 13.7902 5.58301 12C5.58301 10.2098 6.29417 8.4929 7.56004 7.22703C8.82591 5.96116 10.5428 5.25 12.333 5.25ZM7.95301 10.875C7.69801 10.875 7.44301 10.89 7.18801 10.9275C6.93027 12.1735 7.1338 13.4707 7.76076 14.5779C8.38771 15.6851 9.39543 16.5269 10.5965 16.9468C11.7976 17.3667 13.1103 17.3362 14.2906 16.8608C15.4708 16.3855 16.4383 15.4977 17.013 14.3625C16.0744 14.4397 15.13 14.3216 14.2394 14.0157C13.3487 13.7098 12.531 13.2226 11.838 12.585L11.6655 12.4125C11.1787 11.924 10.6001 11.5367 9.96289 11.2728C9.32573 11.0089 8.64265 10.8737 7.95301 10.875ZM12.333 6.75C11.4104 6.74897 10.5039 6.99106 9.70468 7.4519C8.90546 7.91273 8.24179 8.57604 7.78051 9.375H7.95301C9.64801 9.375 11.283 10.005 12.543 11.175L12.723 11.355C13.3404 11.9746 14.1031 12.4297 14.9416 12.6786C15.7801 12.9275 16.6676 12.9624 17.523 12.78C17.6352 12.0332 17.585 11.2709 17.3757 10.5452C17.1664 9.81957 16.803 9.14761 16.3104 8.5752C15.8177 8.00279 15.2073 7.54342 14.5209 7.22843C13.8345 6.91344 13.0882 6.75025 12.333 6.75ZM5.58301 4.5C5.78192 4.5 5.97269 4.57902 6.11334 4.71967C6.25399 4.86032 6.33301 5.05109 6.33301 5.25C6.33301 5.44891 6.25399 5.63968 6.11334 5.78033C5.97269 5.92098 5.78192 6 5.58301 6C5.3841 6 5.19333 5.92098 5.05268 5.78033C4.91203 5.63968 4.83301 5.44891 4.83301 5.25C4.83301 5.05109 4.91203 4.86032 5.05268 4.71967C5.19333 4.57902 5.3841 4.5 5.58301 4.5Z" fill="#222222"/>
</svg>
