<svg width="24" height="24" viewBox="0 0 24 24" fill="none" xmlns="http://www.w3.org/2000/svg">
<g clip-path="url(#clip0_83_586)">
<path d="M19.4932 0.750002C19.9856 0.750002 20.4733 0.846998 20.9282 1.03545C21.3832 1.22391 21.7966 1.50013 22.1448 1.84835C22.493 2.19657 22.7693 2.60997 22.9577 3.06494C23.1462 3.51991 23.2432 4.00754 23.2432 4.5C23.2432 9.2925 22.0432 14.3925 20.2432 15.525V23.25H18.7432V15.525C16.9732 14.415 15.7882 9.4725 15.7432 4.755V4.335C15.7857 3.36931 16.1995 2.45735 16.8982 1.78939C17.5969 1.12142 18.5265 0.749066 19.4932 0.750002ZM12.7432 0.750002V14.34C14.4832 14.7525 15.7432 16.59 15.7432 18.75C15.7432 21.2025 14.1082 23.25 11.9932 23.25C9.87816 23.25 8.24316 21.2025 8.24316 18.75C8.24316 16.5975 9.50316 14.7525 11.2432 14.34V0.750002H12.7432ZM1.49316 0.750002H2.24316C5.59566 0.750002 7.44066 5.5275 7.49316 14.625V15.75H2.99316V23.25H1.49316V0.750002ZM11.9932 15.75C10.7932 15.75 9.74316 17.0625 9.74316 18.75C9.74316 20.4375 10.7932 21.75 11.9932 21.75C13.1932 21.75 14.2432 20.4375 14.2432 18.75C14.2432 17.0625 13.1932 15.75 11.9932 15.75ZM2.99316 2.43V14.25H5.99316L5.97816 13.53L5.95566 12.8175C5.74566 6.87 4.67316 3.465 3.15816 2.52L3.06816 2.475L2.99316 2.43ZM17.2432 4.365V4.7325C17.2807 7.9725 18.0157 11.58 18.7432 13.275V2.3775C18.3253 2.52435 17.96 2.79128 17.6932 3.14484C17.4263 3.4984 17.2698 3.92285 17.2432 4.365ZM20.2432 2.3775V13.275C20.9857 11.5425 21.7432 7.8 21.7432 4.5C21.7434 4.03451 21.5993 3.58041 21.3306 3.20027C21.062 2.82012 20.682 2.53266 20.2432 2.3775Z" fill="#222222"/>
</g>
<defs>
<clipPath id="clip0_83_586">
<rect width="24" height="24" fill="white" transform="translate(-0.00683594)"/>
</clipPath>
</defs>
</svg>
