<svg width="25" height="24" viewBox="0 0 25 24" fill="none" xmlns="http://www.w3.org/2000/svg">
<g clip-path="url(#clip0_83_593)">
<path d="M12.3327 15.2476C13.0627 15.2476 13.7628 15.5376 14.279 16.0537C14.7952 16.5699 15.0852 17.2701 15.0852 18.0001C15.0852 18.7301 14.7952 19.4302 14.279 19.9464C13.7628 20.4626 13.0627 20.7526 12.3327 20.7526C11.6027 20.7526 10.9026 20.4626 10.3864 19.9464C9.87019 19.4302 9.58019 18.7301 9.58019 18.0001C9.58019 17.2701 9.87019 16.5699 10.3864 16.0537C10.9026 15.5376 11.6027 15.2476 12.3327 15.2476ZM12.3327 16.7476C12.0005 16.7476 11.6819 16.8795 11.447 17.1144C11.2122 17.3493 11.0802 17.6679 11.0802 18.0001C11.0802 18.3322 11.2122 18.6508 11.447 18.8857C11.6819 19.1206 12.0005 19.2526 12.3327 19.2526C12.6649 19.2526 12.9835 19.1206 13.2183 18.8857C13.4532 18.6508 13.5852 18.3322 13.5852 18.0001C13.5852 17.6679 13.4532 17.3493 13.2183 17.1144C12.9835 16.8795 12.6649 16.7476 12.3327 16.7476ZM12.3327 11.2501C13.5838 11.2504 14.8102 11.5984 15.875 12.2553C16.9398 12.9122 17.8011 13.8521 18.3627 14.9701L17.2302 16.1026C16.8483 15.1138 16.1761 14.2637 15.302 13.6642C14.4278 13.0647 13.3927 12.7439 12.3327 12.7439C11.2727 12.7439 10.2376 13.0647 9.36342 13.6642C8.48926 14.2637 7.81705 15.1138 7.43519 16.1026L6.3027 14.9701C6.86431 13.8521 7.72558 12.9122 8.79038 12.2553C9.85517 11.5984 11.0816 11.2504 12.3327 11.2501ZM12.3327 7.25256C16.0677 7.25256 19.3602 9.15756 21.2877 12.0526L20.2002 13.1326C19.3716 11.7912 18.2138 10.6839 16.8368 9.91601C15.4598 9.14808 13.9093 8.74497 12.3327 8.74497C10.756 8.74497 9.20557 9.14808 7.82857 9.91601C6.45157 10.6839 5.29379 11.7912 4.4652 13.1326L3.3777 12.0451C4.35822 10.568 5.68914 9.35669 7.25169 8.51914C8.81424 7.68159 10.5598 7.24388 12.3327 7.24506V7.25256ZM12.3327 3.24756C17.1702 3.24756 21.4677 5.57256 24.1527 9.17256L23.0802 10.2526C21.8552 8.54613 20.2415 7.1559 18.3726 6.19692C16.5037 5.23793 14.4333 4.73775 12.3327 4.73775C10.2321 4.73775 8.1617 5.23793 6.29279 6.19692C4.42388 7.1559 2.81017 8.54613 1.5852 10.2526L0.512695 9.18006C3.1977 5.58006 7.48769 3.25506 12.3327 3.25506V3.24756Z" fill="#222222"/>
</g>
<defs>
<clipPath id="clip0_83_593">
<rect width="24" height="24" fill="white" transform="translate(0.333008)"/>
</clipPath>
</defs>
</svg>
