<svg width="115" height="115" viewBox="0 0 115 115" fill="none" xmlns="http://www.w3.org/2000/svg">
<g filter="url(#filter0_d_52_77)">
<rect x="19" y="7" width="77" height="77" rx="10" fill="white"/>
</g>
<g clip-path="url(#clip0_52_77)">
<path d="M72.6557 51.5L74.9095 52.8519C75.0485 52.9351 75.1636 53.0529 75.2435 53.1939C75.3234 53.3349 75.3654 53.4942 75.3654 53.6562C75.3654 53.8183 75.3234 53.9776 75.2435 54.1185C75.1636 54.2595 75.0485 54.3774 74.9095 54.4606L58.4657 64.3269C58.1741 64.5021 57.8403 64.5946 57.5001 64.5946C57.1599 64.5946 56.8261 64.5021 56.5345 64.3269L40.0907 54.4606C39.9517 54.3774 39.8366 54.2595 39.7567 54.1185C39.6768 53.9776 39.6348 53.8183 39.6348 53.6562C39.6348 53.4942 39.6768 53.3349 39.7567 53.1939C39.8366 53.0529 39.9517 52.9351 40.0907 52.8519L42.3445 51.5L57.5001 60.5937L72.6557 51.5ZM72.6557 42.6875L74.9095 44.0394C75.0485 44.1226 75.1636 44.2404 75.2435 44.3814C75.3234 44.5224 75.3654 44.6817 75.3654 44.8437C75.3654 45.0058 75.3234 45.1651 75.2435 45.306C75.1636 45.447 75.0485 45.5649 74.9095 45.6481L57.5001 56.0937L40.0907 45.6481C39.9517 45.5649 39.8366 45.447 39.7567 45.306C39.6768 45.1651 39.6348 45.0058 39.6348 44.8437C39.6348 44.6817 39.6768 44.5224 39.7567 44.3814C39.8366 44.2404 39.9517 44.1226 40.0907 44.0394L42.3445 42.6875L57.5001 51.7812L72.6557 42.6875ZM58.4638 25.4544L74.9095 35.3206C75.0485 35.4038 75.1636 35.5217 75.2435 35.6627C75.3234 35.8036 75.3654 35.9629 75.3654 36.125C75.3654 36.287 75.3234 36.4463 75.2435 36.5873C75.1636 36.7283 75.0485 36.8461 74.9095 36.9294L57.5001 47.375L40.0907 36.9294C39.9517 36.8461 39.8366 36.7283 39.7567 36.5873C39.6768 36.4463 39.6348 36.287 39.6348 36.125C39.6348 35.9629 39.6768 35.8036 39.7567 35.6627C39.8366 35.5217 39.9517 35.4038 40.0907 35.3206L56.5345 25.4544C56.8261 25.2791 57.1599 25.1866 57.5001 25.1866C57.8403 25.1866 58.1741 25.2791 58.4657 25.4544H58.4638ZM57.5001 29.2475L46.0382 36.125L57.5001 43.0025L68.962 36.125L57.5001 29.2475Z" fill="#2654CA"/>
</g>
<defs>
<filter id="filter0_d_52_77" x="0" y="0" width="115" height="115" filterUnits="userSpaceOnUse" color-interpolation-filters="sRGB">
<feFlood flood-opacity="0" result="BackgroundImageFix"/>
<feColorMatrix in="SourceAlpha" type="matrix" values="0 0 0 0 0 0 0 0 0 0 0 0 0 0 0 0 0 0 127 0" result="hardAlpha"/>
<feOffset dy="12"/>
<feGaussianBlur stdDeviation="9.5"/>
<feComposite in2="hardAlpha" operator="out"/>
<feColorMatrix type="matrix" values="0 0 0 0 0 0 0 0 0 0 0 0 0 0 0 0 0 0 0.15 0"/>
<feBlend mode="normal" in2="BackgroundImageFix" result="effect1_dropShadow_52_77"/>
<feBlend mode="normal" in="SourceGraphic" in2="effect1_dropShadow_52_77" result="shape"/>
</filter>
<clipPath id="clip0_52_77">
<rect width="45" height="45" fill="white" transform="translate(35 23)"/>
</clipPath>
</defs>
</svg>
