<svg width="12" height="12" viewBox="0 0 12 12" fill="none" xmlns="http://www.w3.org/2000/svg">
<path d="M5.99991 11.9804C4.8312 11.9804 3.68874 11.6325 2.717 10.9808C1.74525 10.3291 0.98787 9.4027 0.540625 8.31888C0.0933806 7.23507 -0.023639 6.04247 0.204364 4.8919C0.432368 3.74132 0.995154 2.68445 1.82155 1.85494C2.64795 1.02542 3.70085 0.460511 4.8471 0.231648C5.99335 0.00278486 7.18147 0.120246 8.26122 0.569177C9.34096 1.01811 10.2638 1.77835 10.9131 2.75376C11.5624 3.72916 11.909 4.87593 11.909 6.04905C11.9071 7.62157 11.284 9.12914 10.1762 10.2411C9.06843 11.353 7.56652 11.9785 5.99991 11.9804ZM5.99991 2.49023C5.29868 2.49023 4.61321 2.69895 4.03016 3.09C3.44711 3.48104 2.99269 4.03686 2.72434 4.68715C2.45599 5.33744 2.38578 6.053 2.52258 6.74334C2.65938 7.43368 2.99706 8.06781 3.4929 8.56552C3.98874 9.06323 4.62048 9.40217 5.30823 9.53949C5.99598 9.67681 6.70885 9.60633 7.35669 9.33697C8.00454 9.06761 8.55826 8.61147 8.94784 8.02622C9.33742 7.44098 9.54536 6.75292 9.54536 6.04905C9.54442 5.10548 9.17058 4.20083 8.50588 3.53362C7.84119 2.86642 6.93993 2.49117 5.99991 2.49023Z" fill="black"/>
</svg>
