<svg width="15" height="19" viewBox="0 0 15 19" fill="none" xmlns="http://www.w3.org/2000/svg">
<path d="M7.5 19L1.74819 12.2489C1.66827 12.1475 1.58917 12.0455 1.51092 11.9429C0.528403 10.6548 -0.00237354 9.08147 7.97923e-06 7.46429C7.97923e-06 5.48463 0.790184 3.58606 2.1967 2.18624C3.60323 0.786414 5.51088 0 7.5 0C9.48912 0 11.3968 0.786414 12.8033 2.18624C14.2098 3.58606 15 5.48463 15 7.46429C15.0024 9.08074 14.4718 10.6533 13.4898 11.9408L13.4891 11.9429C13.4891 11.9429 13.2845 12.2102 13.2539 12.2462L7.5 19ZM2.5991 11.1252C2.60046 11.1252 2.75864 11.3342 2.79478 11.379L7.5 16.9019L12.2114 11.3715C12.2414 11.3342 12.4009 11.1238 12.4016 11.1231C13.2042 10.0708 13.6379 8.78548 13.6364 7.46429C13.6364 5.84457 12.9898 4.29119 11.8391 3.14588C10.6883 2.00057 9.12746 1.35714 7.5 1.35714C5.87254 1.35714 4.31173 2.00057 3.16094 3.14588C2.01015 4.29119 1.36364 5.84457 1.36364 7.46429C1.36221 8.78631 1.79576 10.0723 2.5991 11.1252Z" fill="#454545"/>
<path d="M7.5 11C6.70888 11 5.93552 10.7654 5.27772 10.3259C4.61992 9.88635 4.10723 9.26164 3.80448 8.53073C3.50173 7.79983 3.42252 6.99556 3.57686 6.21964C3.7312 5.44372 4.11216 4.73098 4.67157 4.17157C5.23098 3.61216 5.94372 3.2312 6.71964 3.07686C7.49556 2.92252 8.29983 3.00173 9.03074 3.30448C9.76164 3.60723 10.3864 4.11992 10.8259 4.77772C11.2654 5.43552 11.5 6.20888 11.5 7C11.4987 8.06048 11.0769 9.07716 10.327 9.82703C9.57716 10.5769 8.56048 10.9987 7.5 11ZM7.5 4.6C7.02533 4.6 6.56131 4.74076 6.16663 5.00447C5.77195 5.26819 5.46434 5.64302 5.28269 6.08156C5.10104 6.5201 5.05351 7.00266 5.14612 7.46822C5.23872 7.93377 5.4673 8.36141 5.80294 8.69706C6.13859 9.0327 6.56623 9.26128 7.03178 9.35389C7.49734 9.44649 7.9799 9.39896 8.41844 9.21731C8.85698 9.03566 9.23181 8.72805 9.49553 8.33337C9.75924 7.93869 9.9 7.47468 9.9 7C9.89937 6.36368 9.64631 5.7536 9.19636 5.30365C8.74641 4.8537 8.13633 4.60064 7.5 4.6Z" fill="#454545"/>
</svg>
