<svg width="33" height="33" viewBox="0 0 33 33" fill="none" xmlns="http://www.w3.org/2000/svg">
<path d="M16.3125 8.22434C16.0307 8.22434 15.7605 8.34137 15.5612 8.54969C15.3619 8.758 15.25 9.04054 15.25 9.33515C15.25 9.62975 15.3619 9.91229 15.5612 10.1206C15.7605 10.3289 16.0307 10.446 16.3125 10.446C16.5943 10.446 16.8645 10.3289 17.0638 10.1206C17.2631 9.91229 17.375 9.62975 17.375 9.33515C17.375 9.04054 17.2631 8.758 17.0638 8.54969C16.8645 8.34137 16.5943 8.22434 16.3125 8.22434ZM13.3056 8.22434C13.5251 7.57392 13.9322 7.01071 14.4708 6.61232C15.0093 6.21394 15.6528 6 16.3125 6C16.9722 6 17.6157 6.21394 18.1542 6.61232C18.6928 7.01071 19.0999 7.57392 19.3194 8.22434H26.9375C27.2193 8.22434 27.4895 8.34137 27.6888 8.54969C27.8881 8.758 28 9.04054 28 9.33515C28 9.62975 27.8881 9.91229 27.6888 10.1206C27.4895 10.3289 27.2193 10.446 26.9375 10.446H19.3194C19.0999 11.0964 18.6928 11.6596 18.1542 12.058C17.6157 12.4564 16.9722 12.6703 16.3125 12.6703C15.6528 12.6703 15.0093 12.4564 14.4708 12.058C13.9322 11.6596 13.5251 11.0964 13.3056 10.446H12.0625C11.7807 10.446 11.5105 10.3289 11.3112 10.1206C11.1119 9.91229 11 9.62975 11 9.33515C11 9.04054 11.1119 8.758 11.3112 8.54969C11.5105 8.34137 11.7807 8.22434 12.0625 8.22434H13.3056ZM22.6875 14.8892C22.4057 14.8892 22.1355 15.0062 21.9362 15.2145C21.7369 15.4229 21.625 15.7054 21.625 16C21.625 16.2946 21.7369 16.5771 21.9362 16.7855C22.1355 16.9938 22.4057 17.1108 22.6875 17.1108C22.9693 17.1108 23.2395 16.9938 23.4388 16.7855C23.6381 16.5771 23.75 16.2946 23.75 16C23.75 15.7054 23.6381 15.4229 23.4388 15.2145C23.2395 15.0062 22.9693 14.8892 22.6875 14.8892ZM19.6806 14.8892C19.9001 14.2388 20.3072 13.6756 20.8458 13.2772C21.3843 12.8788 22.0278 12.6649 22.6875 12.6649C23.3472 12.6649 23.9907 12.8788 24.5292 13.2772C25.0678 13.6756 25.4749 14.2388 25.6944 14.8892H26.9375C27.2193 14.8892 27.4895 15.0062 27.6888 15.2145C27.8881 15.4229 28 15.7054 28 16C28 16.2946 27.8881 16.5771 27.6888 16.7855C27.4895 16.9938 27.2193 17.1108 26.9375 17.1108H25.6944C25.4749 17.7612 25.0678 18.3244 24.5292 18.7228C23.9907 19.1212 23.3472 19.3351 22.6875 19.3351C22.0278 19.3351 21.3843 19.1212 20.8458 18.7228C20.3072 18.3244 19.9001 17.7612 19.6806 17.1108H12.0625C11.7807 17.1108 11.5105 16.9938 11.3112 16.7855C11.1119 16.5771 11 16.2946 11 16C11 15.7054 11.1119 15.4229 11.3112 15.2145C11.5105 15.0062 11.7807 14.8892 12.0625 14.8892H19.6806ZM16.3125 21.554C16.0307 21.554 15.7605 21.6711 15.5612 21.8794C15.3619 22.0877 15.25 22.3702 15.25 22.6649C15.25 22.9595 15.3619 23.242 15.5612 23.4503C15.7605 23.6586 16.0307 23.7757 16.3125 23.7757C16.5943 23.7757 16.8645 23.6586 17.0638 23.4503C17.2631 23.242 17.375 22.9595 17.375 22.6649C17.375 22.3702 17.2631 22.0877 17.0638 21.8794C16.8645 21.6711 16.5943 21.554 16.3125 21.554ZM13.3056 21.554C13.5251 20.9036 13.9322 20.3404 14.4708 19.942C15.0093 19.5436 15.6528 19.3297 16.3125 19.3297C16.9722 19.3297 17.6157 19.5436 18.1542 19.942C18.6928 20.3404 19.0999 20.9036 19.3194 21.554H26.9375C27.2193 21.554 27.4895 21.6711 27.6888 21.8794C27.8881 22.0877 28 22.3702 28 22.6649C28 22.9595 27.8881 23.242 27.6888 23.4503C27.4895 23.6586 27.2193 23.7757 26.9375 23.7757H19.3194C19.0999 24.4261 18.6928 24.9893 18.1542 25.3877C17.6157 25.7861 16.9722 26 16.3125 26C15.6528 26 15.0093 25.7861 14.4708 25.3877C13.9322 24.9893 13.5251 24.4261 13.3056 23.7757H12.0625C11.7807 23.7757 11.5105 23.6586 11.3112 23.4503C11.1119 23.242 11 22.9595 11 22.6649C11 22.3702 11.1119 22.0877 11.3112 21.8794C11.5105 21.6711 11.7807 21.554 12.0625 21.554H13.3056Z" fill="black"/>
</svg>
