<svg width="25" height="25" viewBox="0 0 25 25" fill="none" xmlns="http://www.w3.org/2000/svg">
<path d="M21.6797 12.5C21.6797 12.3446 21.618 12.1956 21.5081 12.0857C21.3982 11.9758 21.2492 11.9141 21.0938 11.9141H13.0859V3.90625C13.0859 3.75085 13.0242 3.60181 12.9143 3.49193C12.8044 3.38204 12.6554 3.32031 12.5 3.32031C12.3446 3.32031 12.1956 3.38204 12.0857 3.49193C11.9758 3.60181 11.9141 3.75085 11.9141 3.90625V11.9141H3.90625C3.75085 11.9141 3.60181 11.9758 3.49193 12.0857C3.38204 12.1956 3.32031 12.3446 3.32031 12.5C3.32031 12.6554 3.38204 12.8044 3.49193 12.9143C3.60181 13.0242 3.75085 13.0859 3.90625 13.0859H11.9141V21.0938C11.9141 21.2492 11.9758 21.3982 12.0857 21.5081C12.1956 21.618 12.3446 21.6797 12.5 21.6797C12.6554 21.6797 12.8044 21.618 12.9143 21.5081C13.0242 21.3982 13.0859 21.2492 13.0859 21.0938V13.0859H21.0938C21.2492 13.0859 21.3982 13.0242 21.5081 12.9143C21.618 12.8044 21.6797 12.6554 21.6797 12.5Z" fill="black" fill-opacity="0.9"/>
</svg>
