<svg width="32" height="32" viewBox="0 0 32 32" fill="none" xmlns="http://www.w3.org/2000/svg">
<path d="M18.2683 1.74968L18.4497 1.91968L31.9994 15.231L30.5462 16.7091L28.6804 14.8765L28.6814 28.9269C28.6814 30.0194 27.8356 30.915 26.7628 30.9938L26.6083 31H5.87741C4.78489 31 3.88931 30.1542 3.8095 29.0814L3.80431 28.9269L3.80328 14.8776L1.93957 16.7091L0.486328 15.231L14.0216 1.93315C15.1752 0.755636 17.0358 0.690334 18.2683 1.74968ZM15.5878 3.30865L15.4883 3.39883L5.87637 12.8407L5.87741 28.9269L11.0591 28.9259L11.0601 18.5614C11.0601 17.4689 11.906 16.5733 12.9788 16.4935L13.1332 16.4883H19.3525C20.445 16.4883 21.3406 17.3342 21.4204 18.407L21.4256 18.5614L21.4246 28.9259L26.6083 28.9269L26.6073 12.8397L16.9685 3.36981C16.5912 2.99976 16.0024 2.97696 15.5878 3.30865ZM19.3525 18.5614H13.1332L13.1322 28.9259H19.3515L19.3525 18.5614Z" fill="#222222"/>
</svg>
