<svg width="33" height="31" viewBox="0 0 33 31" fill="none" xmlns="http://www.w3.org/2000/svg">
<path d="M17.348 2.17505L20.9823 9.51219C21.065 9.69842 21.195 9.85973 21.3594 9.98004C21.5239 10.1004 21.717 10.1755 21.9195 10.1979L29.9423 11.3865C30.1746 11.4163 30.3936 11.5117 30.5738 11.6613C30.7539 11.811 30.8877 12.0089 30.9596 12.2318C31.0316 12.4547 31.0386 12.6934 30.9798 12.9201C30.9211 13.1469 30.7991 13.3522 30.628 13.5122L24.8452 19.2493C24.6976 19.3872 24.5868 19.5598 24.5229 19.7514C24.4591 19.9431 24.4441 20.1476 24.4795 20.3465L25.8737 28.415C25.9141 28.6469 25.8886 28.8854 25.8001 29.1035C25.7116 29.3215 25.5637 29.5104 25.3731 29.6485C25.1826 29.7866 24.9571 29.8685 24.7224 29.8848C24.4876 29.9011 24.253 29.8512 24.0452 29.7408L16.8223 25.9236C16.6374 25.8328 16.4341 25.7856 16.228 25.7856C16.022 25.7856 15.8187 25.8328 15.6337 25.9236L8.41089 29.7408C8.20309 29.8512 7.96846 29.9011 7.73369 29.8848C7.49893 29.8685 7.27345 29.7866 7.08292 29.6485C6.8924 29.5104 6.74447 29.3215 6.65597 29.1035C6.56747 28.8854 6.54195 28.6469 6.58232 28.415L7.97661 20.255C8.01194 20.0562 7.99699 19.8516 7.93312 19.66C7.86925 19.4684 7.75848 19.2958 7.61089 19.1579L1.75946 13.5122C1.58635 13.3478 1.4646 13.1368 1.40898 12.9047C1.35335 12.6725 1.36624 12.4293 1.44606 12.2043C1.52589 11.9793 1.66923 11.7824 1.85873 11.6372C2.04823 11.492 2.27576 11.405 2.51375 11.3865L10.5366 10.1979C10.7391 10.1755 10.9322 10.1004 11.0966 9.98004C11.2611 9.85973 11.3911 9.69842 11.4737 9.51219L15.108 2.17505C15.207 1.96135 15.365 1.78043 15.5635 1.65364C15.7619 1.52685 15.9925 1.45947 16.228 1.45947C16.4635 1.45947 16.6941 1.52685 16.8926 1.65364C17.091 1.78043 17.2491 1.96135 17.348 2.17505Z" stroke="#454545" stroke-width="2" stroke-linecap="round" stroke-linejoin="round"/>
</svg>
