<svg width="17" height="17" viewBox="0 0 17 17" fill="none" xmlns="http://www.w3.org/2000/svg">
<g clip-path="url(#clip0_10_6600)">
<path fill-rule="evenodd" clip-rule="evenodd" d="M16.7901 0.97998V4.80882H6.20483V4.58333C6.20483 3.58984 5.39664 2.78165 4.40315 2.78165C3.40966 2.78165 2.60148 3.58984 2.60148 4.58333C2.60148 5.57682 3.40966 6.385 4.40315 6.385H4.62827V16.9703H0.799805V0.97998H16.7901ZM16.3395 4.35821V1.43059H1.25041V16.5197H4.17804V14.6946H3.40855V14.2444H4.17804V13.4935H3.40855V13.0429H4.17804V12.3534H2.41394V11.9028H4.17804V11.1895H3.40855V10.7392H4.17804V9.98835H3.40855V9.53812H4.17804V8.8624H2.41394V8.41217H4.17804V6.82445C3.04166 6.71096 2.15125 5.74947 2.15125 4.58333C2.15125 3.34165 3.16148 2.33142 4.40315 2.33142C5.56892 2.33142 6.53078 3.22184 6.64427 4.35821H8.21785V3.44547H8.66808V4.35821H9.41859V3.44547H9.8692V4.35821H10.5591V2.45086H11.0093V4.35821H11.7226V3.44547H12.1732V4.35821H12.9237V3.44547H13.3743V4.35821H14.0497V2.45086H14.5003V4.35821H16.3395Z" fill="black"/>
</g>
<defs>
<clipPath id="clip0_10_6600">
<rect width="16" height="16" fill="white" transform="translate(0.799805 0.97998)"/>
</clipPath>
</defs>
</svg>
