<svg width="60" height="60" viewBox="0 0 60 60" fill="none" xmlns="http://www.w3.org/2000/svg">
<path d="M30 0C46.569 0 60 13.431 60 30C60 46.569 46.569 60 30 60C13.431 60 0 46.569 0 30C0 13.431 13.431 0 30 0ZM30 39C29.2044 39 28.4413 39.3161 27.8787 39.8787C27.3161 40.4413 27 41.2044 27 42C27 42.7956 27.3161 43.5587 27.8787 44.1213C28.4413 44.6839 29.2044 45 30 45C30.7956 45 31.5587 44.6839 32.1213 44.1213C32.6839 43.5587 33 42.7956 33 42C33 41.2044 32.6839 40.4413 32.1213 39.8787C31.5587 39.3161 30.7956 39 30 39ZM30 12C29.2652 12.0001 28.556 12.2699 28.0069 12.7581C27.4578 13.2464 27.107 13.9192 27.021 14.649L27 15V33C27.0008 33.7646 27.2936 34.5001 27.8185 35.0561C28.3435 35.6121 29.0609 35.9467 29.8242 35.9915C30.5875 36.0363 31.3391 35.788 31.9255 35.2972C32.5119 34.8064 32.8887 34.1103 32.979 33.351L33 33V15C33 14.2044 32.6839 13.4413 32.1213 12.8787C31.5587 12.3161 30.7956 12 30 12Z" fill="#FF4444"/>
</svg>
