<svg width="60" height="54" viewBox="0 0 60 54" fill="none" xmlns="http://www.w3.org/2000/svg">
<path d="M59.1427 44.304L35.7198 3.29955C35.1345 2.29495 34.2989 1.46199 33.2958 0.883232C32.2928 0.30447 31.1571 0 30.0013 0C28.8456 0 27.7099 0.30447 26.7068 0.883232C25.7038 1.46199 24.8682 2.29495 24.2829 3.29955L0.859972 44.304C0.296794 45.2757 0 46.3808 0 47.5062C0 48.6316 0.296794 49.7367 0.859972 50.7084C1.43779 51.719 2.27196 52.5565 3.27689 53.1349C4.28181 53.7133 5.4213 54.0118 6.57843 53.9996H53.4242C54.5805 54.0108 55.7188 53.7119 56.7227 53.1336C57.7266 52.5552 58.56 51.7182 59.1373 50.7084C59.7013 49.7372 59.9991 48.6323 60 47.5069C60.0009 46.3816 59.7051 45.2762 59.1427 44.304ZM27.8586 21.6C27.8586 21.0271 28.0843 20.4777 28.4862 20.0726C28.888 19.6676 29.433 19.44 30.0013 19.44C30.5696 19.44 31.1146 19.6676 31.5165 20.0726C31.9183 20.4777 32.1441 21.0271 32.1441 21.6V32.3999C32.1441 32.9727 31.9183 33.5221 31.5165 33.9272C31.1146 34.3323 30.5696 34.5598 30.0013 34.5598C29.433 34.5598 28.888 34.3323 28.4862 33.9272C28.0843 33.5221 27.8586 32.9727 27.8586 32.3999V21.6ZM30.0013 45.3597C29.3656 45.3597 28.7442 45.1697 28.2157 44.8137C27.6871 44.4577 27.2751 43.9517 27.0319 43.3596C26.7886 42.7676 26.725 42.1162 26.849 41.4877C26.973 40.8592 27.2791 40.2819 27.7286 39.8288C28.1781 39.3756 28.7508 39.0671 29.3743 38.942C29.9978 38.817 30.644 38.8812 31.2313 39.1264C31.8186 39.3716 32.3206 39.7869 32.6738 40.3197C33.027 40.8525 33.2155 41.479 33.2155 42.1198C33.2155 42.9791 32.8768 43.8032 32.2741 44.4108C31.6713 45.0184 30.8538 45.3597 30.0013 45.3597Z" fill="#FFD53F"/>
</svg>
